<svg viewBox="0 0 340 130" xmlns="http://www.w3.org/2000/svg"><rect width="340" height="130" fill="#070a14"/><defs><radialGradient id="rg-blueprint-saffron" cx="50%" cy="50%" r="55%"><stop offset="0%" stop-color="#f58a0b" stop-opacity="0.05"/><stop offset="100%" stop-color="#f58a0b" stop-opacity="0"/></radialGradient></defs><rect width="340" height="130" fill="url(#rg-blueprint-saffron)"/><rect x="40" y="18" width="160" height="100" rx="3" fill="none" stroke="#f58a0b" stroke-width="0.7" opacity="0.2"/><line x1="40" y1="48" x2="200" y2="48" stroke="#f58a0b" stroke-width="0.5" opacity="0.15"/><line x1="40" y1="78" x2="200" y2="78" stroke="#f58a0b" stroke-width="0.5" opacity="0.15"/><line x1="90" y1="18" x2="90" y2="118" stroke="#f58a0b" stroke-width="0.5" opacity="0.12"/><line x1="150" y1="18" x2="150" y2="118" stroke="#f58a0b" stroke-width="0.5" opacity="0.12"/><rect x="100" y="55" width="40" height="40" rx="1" fill="#f58a0b" fill-opacity="0.07" stroke="#f58a0b" stroke-width="0.7" stroke-opacity="0.25"/><line x1="100" y1="55" x2="140" y2="95" stroke="#f58a0b" stroke-width="0.4" opacity="0.2"/><line x1="140" y1="55" x2="100" y2="95" stroke="#f58a0b" stroke-width="0.4" opacity="0.2"/><circle cx="120" cy="75" r="10" fill="none" stroke="#f58a0b" stroke-width="0.8" opacity="0.35"/><circle cx="120" cy="75" r="2" fill="#f58a0b" opacity="0.7"/><rect x="220" y="25" width="95" height="12" rx="2" fill="#f58a0b" fill-opacity="0.05" stroke="#f58a0b" stroke-width="0.4" stroke-opacity="0.15"/><rect x="220" y="45" width="70" height="8" rx="1" fill="#f58a0b" fill-opacity="0.03" stroke="#f58a0b" stroke-width="0.4" stroke-opacity="0.1"/><rect x="220" y="62" width="82" height="8" rx="1" fill="#f58a0b" fill-opacity="0.03" stroke="#f58a0b" stroke-width="0.4" stroke-opacity="0.1"/><rect x="220" y="80" width="55" height="8" rx="1" fill="#f58a0b" fill-opacity="0.03" stroke="#f58a0b" stroke-width="0.4" stroke-opacity="0.1"/></svg>
