<svg viewBox="0 0 340 130" xmlns="http://www.w3.org/2000/svg"><rect width="340" height="130" fill="#070a14"/><defs><radialGradient id="rg-circuit-saffron" cx="50%" cy="50%" r="55%"><stop offset="0%" stop-color="#f58a0b" stop-opacity="0.05"/><stop offset="100%" stop-color="#f58a0b" stop-opacity="0"/></radialGradient></defs><rect width="340" height="130" fill="url(#rg-circuit-saffron)"/><rect x="60" y="30" width="120" height="70" rx="3" fill="none" stroke="#f58a0b" stroke-width="0.8" opacity="0.2"/><rect x="80" y="45" width="80" height="40" rx="2" fill="none" stroke="#f58a0b" stroke-width="0.6" opacity="0.3"/><line x1="60" y1="65" x2="20" y2="65" stroke="#f58a0b" stroke-width="0.7" opacity="0.3"/><line x1="180" y1="65" x2="220" y2="65" stroke="#f58a0b" stroke-width="0.7" opacity="0.3"/><line x1="120" y1="30" x2="120" y2="10" stroke="#f58a0b" stroke-width="0.7" opacity="0.3"/><line x1="120" y1="100" x2="120" y2="120" stroke="#f58a0b" stroke-width="0.7" opacity="0.3"/><circle cx="20" cy="65" r="3" fill="#f58a0b" opacity="0.6"/><circle cx="220" cy="65" r="3" fill="#f58a0b" opacity="0.6"/><circle cx="120" cy="10" r="3" fill="#f58a0b" opacity="0.6"/><circle cx="120" cy="120" r="3" fill="#f58a0b" opacity="0.6"/><circle cx="120" cy="65" r="6" fill="none" stroke="#f58a0b" stroke-width="1" opacity="0.5"/><circle cx="120" cy="65" r="2" fill="#f58a0b" opacity="0.9"/><line x1="240" y1="20" x2="295" y2="20" stroke="#f58a0b" stroke-width="0.5" opacity="0.15"/><line x1="240" y1="40" x2="295" y2="40" stroke="#f58a0b" stroke-width="0.5" opacity="0.1"/><line x1="240" y1="60" x2="295" y2="60" stroke="#f58a0b" stroke-width="0.5" opacity="0.08"/><line x1="240" y1="80" x2="295" y2="80" stroke="#f58a0b" stroke-width="0.5" opacity="0.06"/><rect x="250" y="28" width="55" height="24" rx="2" fill="none" stroke="#f58a0b" stroke-width="0.6" opacity="0.2"/><rect x="250" y="62" width="38" height="14" rx="1" fill="#f58a0b" opacity="0.08"/></svg>
