<svg viewBox="0 0 340 130" xmlns="http://www.w3.org/2000/svg"><rect width="340" height="130" fill="#070a14"/><defs><radialGradient id="rg-pulse-cyan" cx="50%" cy="50%" r="55%"><stop offset="0%" stop-color="#1dcfcf" stop-opacity="0.05"/><stop offset="100%" stop-color="#1dcfcf" stop-opacity="0"/></radialGradient></defs><rect width="340" height="130" fill="url(#rg-pulse-cyan)"/><polyline points="20,70 55,70 70,30 90,110 110,50 130,85 150,65 175,65 340,65" fill="none" stroke="#1dcfcf" stroke-width="1.2" opacity="0.35" stroke-linecap="round" stroke-linejoin="round"/><circle cx="90" cy="110" r="3" fill="#1dcfcf" opacity="0.6"/><circle cx="110" cy="50" r="3" fill="#1dcfcf" opacity="0.6"/><circle cx="130" cy="85" r="3" fill="#1dcfcf" opacity="0.6"/><line x1="90" y1="30" x2="90" y2="125" stroke="#1dcfcf" stroke-width="0.4" opacity="0.1" stroke-dasharray="3 3"/><line x1="110" y1="30" x2="110" y2="125" stroke="#1dcfcf" stroke-width="0.4" opacity="0.1" stroke-dasharray="3 3"/><line x1="130" y1="30" x2="130" y2="125" stroke="#1dcfcf" stroke-width="0.4" opacity="0.1" stroke-dasharray="3 3"/><rect x="210" y="40" width="100" height="55" rx="4" fill="none" stroke="#1dcfcf" stroke-width="0.6" opacity="0.18"/><rect x="222" y="52" width="76" height="6" rx="1" fill="#1dcfcf" opacity="0.12"/><rect x="222" y="64" width="55" height="6" rx="1" fill="#1dcfcf" opacity="0.08"/><rect x="222" y="76" width="68" height="6" rx="1" fill="#1dcfcf" opacity="0.06"/></svg>
