<svg width="17" height="17" viewBox="0 0 17 17" fill="none" xmlns="http://www.w3.org/2000/svg">
<path d="M10.4259 16.7324C10.4286 16.7076 10.4299 16.6825 10.4299 16.6571V10.6248H12.4919C12.8226 10.6248 13.1202 10.4071 13.1685 10.0801C13.2484 9.53902 13.2145 9.04705 13.1628 8.69721C13.1153 8.37605 12.8291 8.16463 12.5044 8.16463H10.4299C10.4299 6.30563 10.7393 6.03513 12.483 6.00129C12.8176 5.99481 13.1179 5.7739 13.1665 5.44279C13.2481 4.88622 13.2156 4.39995 13.1644 4.05785C13.117 3.74186 12.8337 3.53587 12.5142 3.53867C9.43229 3.56555 7.67697 3.92994 7.67697 8.16463H6.08032C5.77002 8.16463 5.49453 8.35911 5.44759 8.66583C5.39703 8.99631 5.36647 9.47532 5.45086 10.0579C5.49963 10.3945 5.80237 10.6248 6.14249 10.6248H7.67697V16.7505C5.29063 16.7348 3.58256 16.6406 2.47036 16.5503C1.24635 16.4508 0.301929 15.5064 0.202481 14.2824C0.103525 13.0644 0 11.1318 0 8.37638C0 5.62096 0.103525 3.68833 0.202481 2.47036C0.301929 1.24635 1.24635 0.301929 2.47037 0.202481C3.68832 0.103521 5.62096 0 8.37638 0C11.1318 0 13.0644 0.103525 14.2824 0.202481C15.5064 0.301929 16.4508 1.24635 16.5503 2.47036C16.6492 3.68833 16.7528 5.62096 16.7528 8.37638C16.7528 11.1318 16.6492 13.0644 16.5503 14.2824C16.4508 15.5064 15.5064 16.4508 14.2824 16.5503C13.3925 16.6226 12.1211 16.6973 10.4259 16.7324Z" fill="#3F3F3F"/>
</svg>
