<svg width="17" height="17" viewBox="0 0 17 17" fill="none" xmlns="http://www.w3.org/2000/svg">
<path fill-rule="evenodd" clip-rule="evenodd" d="M3.50851 0C1.57082 0 0 1.57081 0 3.50852V12.8646C0 14.8022 1.57082 16.3731 3.50851 16.3731H12.8646C14.8023 16.3731 16.373 14.8022 16.373 12.8646V3.50852C16.373 1.57081 14.8023 0 12.8646 0H3.50851ZM13.8745 3.5136C13.8745 4.07174 13.422 4.5242 12.8639 4.5242C12.3058 4.5242 11.8533 4.07174 11.8533 3.5136C11.8533 2.95545 12.3058 2.503 12.8639 2.503C13.422 2.503 13.8745 2.95545 13.8745 3.5136ZM8.1867 5.38364C6.63875 5.38364 5.38388 6.63851 5.38388 8.18646C5.38388 9.73441 6.63875 10.9893 8.1867 10.9893C9.73465 10.9893 10.9895 9.73441 10.9895 8.18646C10.9895 6.63851 9.73465 5.38364 8.1867 5.38364ZM4.03641 8.18646C4.03641 5.89431 5.89456 4.03616 8.1867 4.03616C10.4788 4.03616 12.337 5.89431 12.337 8.18646C12.337 10.4786 10.4788 12.3368 8.1867 12.3368C5.89456 12.3368 4.03641 10.4786 4.03641 8.18646Z" fill="#3F3F3F"/>
</svg>
