<svg width="17" height="17" viewBox="0 0 17 17" fill="none" xmlns="http://www.w3.org/2000/svg">
<path d="M15.7857 0H1.21049C0.542634 0 0 0.550223 0 1.22567V15.7743C0 16.4498 0.542634 17 1.21049 17H15.7857C16.4536 17 17 16.4498 17 15.7743V1.22567C17 0.550223 16.4536 0 15.7857 0ZM5.13795 14.5714H2.6183V6.45848H5.14174V14.5714H5.13795ZM3.87812 5.35045C3.06987 5.35045 2.41719 4.69397 2.41719 3.88951C2.41719 3.08504 3.06987 2.42857 3.87812 2.42857C4.68259 2.42857 5.33906 3.08504 5.33906 3.88951C5.33906 4.69777 4.68638 5.35045 3.87812 5.35045ZM14.5828 14.5714H12.0632V10.625C12.0632 9.68393 12.0442 8.47344 10.754 8.47344C9.44107 8.47344 9.23996 9.49799 9.23996 10.5567V14.5714H6.72031V6.45848H9.1375V7.56652H9.17165C9.50938 6.92902 10.3328 6.25737 11.5585 6.25737C14.1085 6.25737 14.5828 7.93839 14.5828 10.1241V14.5714Z" fill="#3F3F3F"/>
</svg>
