<?xml version="1.0" encoding="UTF-8"?>
<svg version="1.1" xmlns="http://www.w3.org/2000/svg" width="400" height="520">
<path d="M0 0 C1.17426264 2.34852528 1.11508173 3.73774065 1.09765625 6.3515625 C1.09282227 7.62773437 1.09282227 7.62773437 1.08789062 8.9296875 C1.07532227 10.26386719 1.07532227 10.26386719 1.0625 11.625 C1.05798828 12.5221875 1.05347656 13.419375 1.04882812 14.34375 C1.03702591 16.56256648 1.02056155 18.78125018 1 21 C1.66 21 2.32 21 3 21 C3.13277344 22.10859375 3.26554687 23.2171875 3.40234375 24.359375 C3.58059757 25.8229327 3.75899028 27.28647349 3.9375 28.75 C4.02451172 29.47960937 4.11152344 30.20921875 4.20117188 30.9609375 C4.99425818 37.8822754 4.99425818 37.8822754 8 44 C9.4897659 47.32415235 10.92527957 50.66549886 12.34570312 54.01953125 C14.00005062 57.8736944 15.81422969 61.41093928 18 65 C18.6875 67.8125 18.6875 67.8125 19 70 C20.485 70.495 20.485 70.495 22 71 C22.2165625 71.9590625 22.2165625 71.9590625 22.4375 72.9375 C22.7159375 73.9584375 22.7159375 73.9584375 23 75 C23.5775 75.28875 24.155 75.5775 24.75 75.875 C28.03606745 77.51803373 29.73430921 80.15336285 32 83 C34.15914361 85.40827556 34.82357089 85.9411903 38 87 C38.33 87.99 38.66 88.98 39 90 C40.65 90.33 42.3 90.66 44 91 C44 91.66 44 92.32 44 93 C51.66934041 96.87374254 59.31484045 100.35260478 67.5625 102.8125 C68.19663818 103.00674561 68.83077637 103.20099121 69.48413086 103.40112305 C81.86346918 106.91712072 94.48020326 107.37686442 107.25 107.3125 C108.40702927 107.30926727 108.40702927 107.30926727 109.58743286 107.30596924 C120.96578733 107.25497761 131.94359516 106.87392428 143 104 C143.74540039 103.81727539 144.49080078 103.63455078 145.25878906 103.44628906 C155.65674616 100.84145325 165.3110991 97.11441352 175.0625 92.6875 C194.93671761 83.66716665 215.54449977 77.03436756 237 73 C237.67885254 72.87012695 238.35770508 72.74025391 239.05712891 72.60644531 C256.47738158 69.40982223 278.59060989 68.06986961 294.22265625 77.734375 C296.42616456 79.30346663 298.31535363 80.87588066 300 83 C300 83.66 300 84.32 300 85 C299.34741211 85.15033691 298.69482422 85.30067383 298.02246094 85.45556641 C236.53494589 98.19082014 236.53494589 98.19082014 188 134 C187.360625 134.144375 186.72125 134.28875 186.0625 134.4375 C183.22231993 135.21209456 182.5421663 136.54655361 181 139 C180.649375 139.721875 180.29875 140.44375 179.9375 141.1875 C179 143 179 143 177 144 C176.5359375 145.2375 176.5359375 145.2375 176.0625 146.5 C175.711875 147.325 175.36125 148.15 175 149 C174.01 149.33 173.02 149.66 172 150 C171.896875 150.94875 171.79375 151.8975 171.6875 152.875 C171.0089081 157.73491554 169.4914524 162.33803874 168 167 C167.34 167 166.68 167 166 167 C165.97289877 169.5625718 165.95311229 172.12485365 165.9375 174.6875 C165.92912109 175.40873047 165.92074219 176.12996094 165.91210938 176.87304688 C165.89456368 180.71555382 166.06475779 184.26639526 167 188 C167.66 188 168.32 188 169 188 C169.50744423 189.89385437 170.00564574 191.79018666 170.5 193.6875 C170.91765625 195.27111328 170.91765625 195.27111328 171.34375 196.88671875 C171.9391715 199.71142672 172.12786492 202.12836708 172 205 C172.66 205 173.32 205 174 205 C174.98293267 207.24842091 175.96144466 209.49859547 176.9375 211.75 C177.21529297 212.38421875 177.49308594 213.0184375 177.77929688 213.671875 C179.11443397 216.76038491 180.19663849 219.73975619 181 223 C181.495 223.45375 181.99 223.9075 182.5 224.375 C184.63927399 226.69254683 184.659511 228.93559899 185 232 C185.99 232.33 186.98 232.66 188 233 C189.125 235.4375 189.125 235.4375 190 238 C190.91968403 240.11671817 190.91968403 240.11671817 192.8125 241.75 C196.07433452 245.10502979 198.51684667 248.55054001 200 253 C201.0828125 254.0828125 201.0828125 254.0828125 202.1875 255.1875 C206.22006536 259.22006536 210.17795991 263.53387974 212 269 C212.99 269.66 213.98 270.32 215 271 C215.144375 271.66 215.28875 272.32 215.4375 273 C215.623125 273.66 215.80875 274.32 216 275 C217.31647119 275.69937532 218.65022151 276.36729133 220 277 C220.33 277.99 220.66 278.98 221 280 C221.66 280.474375 222.32 280.94875 223 281.4375 C225 283 225 283 225.4375 285 C225.82943123 287.27812157 225.82943123 287.27812157 228.4375 288.4375 C231 290 231 290 231.875 292.3125 C233.93076442 297.22349279 238.68531084 300.02827323 242.875 303.125 C245 305 245 305 245.5 307.0625 C245.665 307.701875 245.83 308.34125 246 309 C247.2065625 309.7115625 247.2065625 309.7115625 248.4375 310.4375 C251.56162732 312.34245568 251.77323392 313.64683937 253 317 C253.60328125 317.57234375 254.2065625 318.1446875 254.828125 318.734375 C257.45015977 321.46959113 259.0355025 324.44731991 260.6875 327.8125 C260.99494141 328.40353516 261.30238281 328.99457031 261.61914062 329.60351562 C263.68290045 333.74458294 264.41230271 337.44671911 265 342 C265.66 342.99 266.32 343.98 267 345 C269.4294516 348.6441774 269.16179575 350.71241272 269 355 C269.66 355 270.32 355 271 355 C270.98839844 355.65226562 270.97679687 356.30453125 270.96484375 356.9765625 C270.95582031 357.85054688 270.94679688 358.72453125 270.9375 359.625 C270.92009766 360.91277344 270.92009766 360.91277344 270.90234375 362.2265625 C270.93450239 365.01265031 270.93450239 365.01265031 271.49780273 367.7644043 C272.01222249 371.07874804 272.12941677 374.19065499 272.1328125 377.54296875 C272.13410156 378.78240234 272.13539063 380.02183594 272.13671875 381.29882812 C272.13285156 382.58208984 272.12898438 383.86535156 272.125 385.1875 C272.12886719 386.45142578 272.13273437 387.71535156 272.13671875 389.01757812 C272.12660595 398.79159499 271.50195906 408.34454892 270 418 C269.34 418 268.68 418 268 418 C267.67 420.97 267.34 423.94 267 427 C266.34 427 265.68 427 265 427 C264.855625 428.175625 264.71125 429.35125 264.5625 430.5625 C263.47393774 435.57308804 261.1758504 439.58886409 258.5625 443.9375 C258.16683838 444.60015869 257.77117676 445.26281738 257.36352539 445.94555664 C255.45017854 449.03775789 254.06382242 450.95745172 251 453 C250.67 453.99 250.34 454.98 250 456 C249.34 456.33 248.68 456.66 248 457 C247.67 457.99 247.34 458.98 247 460 C246.34 460.309375 245.68 460.61875 245 460.9375 C244.34 461.288125 243.68 461.63875 243 462 C242.6278958 463.32303717 242.29369827 464.65737935 242 466 C241.01 466.66 240.02 467.32 239 468 C238.34 468.66 237.68 469.32 237 470 C231 476 231 476 229.23828125 476.8125 C226.17433755 478.43804779 223.76588654 480.71389861 221.1875 483 C210.48583089 492.20494271 198.77466245 499.25798857 186.5 506.1875 C185.49227539 506.75766846 184.48455078 507.32783691 183.44628906 507.9152832 C181.45077413 509.0247395 179.44356488 510.11346868 177.42427063 511.17903137 C175.20643123 512.35844048 173.00847258 513.57635386 170.83677673 514.8387146 C159.83760299 520.73491846 150.13887473 520.92323363 137.84765625 520.68359375 C135.85129042 520.6705055 133.85490179 520.66055663 131.85850525 520.65357971 C126.65483316 520.62710781 121.45257267 520.55857083 116.24945068 520.48065186 C110.91974981 520.4084868 105.58981634 520.37695541 100.25976562 520.34179688 C89.83923034 520.26717521 79.41973345 520.14802106 69 520 C69 519.67 69 519.34 69 519 C69.804375 518.8040625 70.60875 518.608125 71.4375 518.40625 C98.95448898 511.40631421 125.88904683 501.25908362 151 488 C152.99771169 486.99543641 154.99697889 485.99393483 157 485 C157 484.34 157 483.68 157 483 C157.65484375 482.93554688 158.3096875 482.87109375 158.984375 482.8046875 C163.23557632 481.67029958 166.55736858 479.46942247 170.25 477.125 C170.9821875 476.67769531 171.714375 476.23039062 172.46875 475.76953125 C173.16484375 475.33253906 173.8609375 474.89554687 174.578125 474.4453125 C175.21137695 474.04844238 175.84462891 473.65157227 176.49707031 473.24267578 C178.30340184 471.97249729 178.30340184 471.97249729 179 469 C179.78375 468.9175 180.5675 468.835 181.375 468.75 C182.24125 468.5025 183.1075 468.255 184 468 C184.69937532 466.68352881 185.36729133 465.34977849 186 464 C187.32594105 463.63837971 188.65938457 463.30271961 190 463 C190.33 462.01 190.66 461.02 191 460 C191.61875 459.87625 192.2375 459.7525 192.875 459.625 C195.95782004 458.71828822 196.41856201 456.70162323 198 454 C200.0625 452.8125 200.0625 452.8125 202 452 C204.06529664 450.18712526 204.06529664 450.18712526 204.8125 448.0625 C206 446 206 446 208.5625 444.5 C211.54292233 442.66589395 211.22244221 442.22457791 212 439 C213.33984375 436.640625 213.33984375 436.640625 214.9375 434.25 C215.46214844 433.45078125 215.98679687 432.6515625 216.52734375 431.828125 C217.25630859 430.92320312 217.25630859 430.92320312 218 430 C218.66 430 219.32 430 220 430 C220.103125 429.154375 220.20625 428.30875 220.3125 427.4375 C221.09211095 423.53944527 222.25197637 420.56596821 224 417 C224.66 416.67 225.32 416.34 226 416 C228.80377919 409.22749111 228.29451477 402.09381153 228.25 394.875 C228.25773437 393.61300781 228.26546875 392.35101563 228.2734375 391.05078125 C228.27085937 389.83519531 228.26828125 388.61960937 228.265625 387.3671875 C228.26224121 385.71372314 228.26224121 385.71372314 228.25878906 384.02685547 C227.87732963 379.56521958 226.46621909 376.69932864 224 373 C223.46083854 370.3397977 223.26629902 367.70737337 223 365 C222.34 365 221.68 365 221 365 C220.5875 364.11699219 220.175 363.23398437 219.75 362.32421875 C216.28607529 355.07270442 212.55704972 348.58793854 207.6015625 342.20703125 C206 340 206 340 205 337 C204.01 336.34 203.02 335.68 202 335 C201.855625 334.34 201.71125 333.68 201.5625 333 C201.376875 332.34 201.19125 331.68 201 331 C200.34 330.67 199.68 330.34 199 330 C198.34 329.67 197.68 329.34 197 329 C196.8644873 328.39760498 196.72897461 327.79520996 196.58935547 327.17456055 C195.8369922 324.39854579 194.60133288 323.22854648 192.5703125 321.20703125 C191.86310059 320.49893311 191.15588867 319.79083496 190.42724609 319.0612793 C189.66750488 318.31918213 188.90776367 317.57708496 188.125 316.8125 C186.96025146 315.66358276 186.96025146 315.66358276 185.77197266 314.49145508 C180.09545131 308.94525902 174.27297122 303.86331477 168 299 C166.86226697 298.07576082 165.72700651 297.14847264 164.59375 296.21875 C145.33108503 280.46959512 124.43512944 267.06674828 103.12060547 254.28564453 C101.07619661 253.04619518 99.05482859 251.77533806 97.03515625 250.49609375 C95.81561271 249.74656777 94.59558907 248.99782216 93.375 248.25 C92.33085937 247.59515625 91.28671875 246.9403125 90.2109375 246.265625 C86.11183107 244.64991882 83.17264202 245.09173468 79 246 C78.06768555 246.19577637 77.13537109 246.39155273 76.17480469 246.59326172 C72.84105021 247.31313231 69.51481734 248.06347356 66.1875 248.8125 C19.98211771 258.91064599 -40.50447177 268.35708168 -83.5625 242.875 C-89.6330685 238.82205485 -95.75509984 233.9773449 -100 228 C-100.30078125 224.15625 -100.30078125 224.15625 -100 221 C-99.42636719 220.75121094 -98.85273437 220.50242188 -98.26171875 220.24609375 C-95.66984535 218.81810133 -93.89489323 217.16052094 -91.8125 215.0625 C-91.11769531 214.37285156 -90.42289063 213.68320313 -89.70703125 212.97265625 C-87.79261254 211.01392867 -87.79261254 211.01392867 -87 208 C-85.35 207.67 -83.7 207.34 -82 207 C-81.67 206.01 -81.34 205.02 -81 204 C-79.9790625 203.86464844 -79.9790625 203.86464844 -78.9375 203.7265625 C-75.29781751 202.82632189 -72.27233462 201.14139413 -69 199.375 C-51.67991048 190.45619097 -33.106944 186.20846775 -14 183 C-13.2486377 182.87254395 -12.49727539 182.74508789 -11.72314453 182.61376953 C2.99282893 180.23360848 18.12583104 180.35961136 33 180 C28.68893999 173.5867693 28.68893999 173.5867693 22.8125 168.9375 C21 168 21 168 20.0625 165.625 C18.32258397 161.32638392 14.75521351 159.50347568 11 157 C10.7834375 156.01 10.7834375 156.01 10.5625 155 C10.376875 154.34 10.19125 153.68 10 153 C8.68352881 152.30062468 7.34977849 151.63270867 6 151 C5.67 150.01 5.34 149.02 5 148 C4.34 147.67 3.68 147.34 3 147 C2.7834375 146.01 2.7834375 146.01 2.5625 145 C2.376875 144.34 2.19125 143.68 2 143 C1.01 142.67 0.02 142.34 -1 142 C-2.37866211 140.34521484 -2.37866211 140.34521484 -3.77734375 138.2109375 C-4.29103516 137.43363281 -4.80472656 136.65632812 -5.33398438 135.85546875 C-5.86314453 135.03691406 -6.39230469 134.21835938 -6.9375 133.375 C-7.46279297 132.57964844 -7.98808594 131.78429687 -8.52929688 130.96484375 C-17.36650142 117.49336048 -17.36650142 117.49336048 -18 111 C-18.66 111 -19.32 111 -20 111 C-21.74101931 107.66935437 -23.12086984 104.64211065 -24 101 C-24.66 100.01 -25.32 99.02 -26 98 C-26.5625 95.6875 -26.5625 95.6875 -27 93 C-27.185625 91.906875 -27.37125 90.81375 -27.5625 89.6875 C-27.7790625 88.3571875 -27.7790625 88.3571875 -28 87 C-28.66 87 -29.32 87 -30 87 C-31.66896609 81.93886951 -32.20609195 77.87508265 -32.01171875 72.484375 C-31.98906448 71.78789856 -31.96641022 71.09142212 -31.94306946 70.37384033 C-31.89341687 68.90805909 -31.83850515 67.44244736 -31.77856445 65.97705078 C-31.68832212 63.77010552 -31.61315793 61.56307258 -31.54101562 59.35546875 C-31.27039094 51.54591928 -30.83219987 43.77276767 -30 36 C-29.34 36 -28.68 36 -28 36 C-27.87044922 35.05640625 -27.87044922 35.05640625 -27.73828125 34.09375 C-26.71569667 27.86442741 -25.02516222 22.94114465 -21 18 C-20.01 17.505 -20.01 17.505 -19 17 C-18.505 15.515 -18.505 15.515 -18 14 C-17.34 13.67 -16.68 13.34 -16 13 C-15.71125 12.360625 -15.4225 11.72125 -15.125 11.0625 C-14 9 -14 9 -12.15234375 8.09765625 C-9.01091634 6.49558528 -7.04321697 4.03602743 -4.68359375 1.4609375 C-3 0 -3 0 0 0 Z M-1 3 C-1 4.98 -1 6.96 -1 9 C-0.67 9 -0.34 9 0 9 C0 7.02 0 5.04 0 3 C-0.33 3 -0.66 3 -1 3 Z M-26 28 C-25 30 -25 30 -25 30 Z M2 28 C2 29.65 2 31.3 2 33 C2.33 33 2.66 33 3 33 C3 31.35 3 29.7 3 28 C2.67 28 2.34 28 2 28 Z M7 47 C8 49 8 49 8 49 Z M9 52 C10 54 10 54 10 54 Z M-31 74 C-31 75.65 -31 77.3 -31 79 C-30.67 79 -30.34 79 -30 79 C-30 77.35 -30 75.7 -30 74 C-30.33 74 -30.66 74 -31 74 Z M-30 80 C-29 83 -29 83 -29 83 Z M-21 105 C-20 107 -20 107 -20 107 Z M169 154 C170 156 170 156 170 156 Z M168 157 C169 159 169 159 169 159 Z M168 194 C169 196 169 196 169 196 Z M170 200 C171 202 171 202 171 202 Z M176 215 C177 217 177 217 177 217 Z M267 348 C268 351 268 351 268 351 Z M224 368 C225 370 225 370 225 370 Z M229 387 C229 392.28 229 397.56 229 403 C229.33 403 229.66 403 230 403 C230 397.72 230 392.44 230 387 C229.67 387 229.34 387 229 387 Z M269 412 C270 414 270 414 270 414 Z M223 422 C224 424 224 424 224 424 Z " fill="#F8993C" transform="translate(100,0)"/>
<path d="M0 0 C1.26444946 0.01752319 1.26444946 0.01752319 2.55444336 0.03540039 C5.53712281 0.0859005 8.51807907 0.16593258 11.5 0.25 C12.71703613 0.2814209 13.93407227 0.3128418 15.18798828 0.34521484 C40.83394059 1.02744138 40.83394059 1.02744138 52.5 2.25 C51.17785108 6.21644677 49.64442855 6.58162548 46.0234375 8.578125 C44.30253906 9.53138672 44.30253906 9.53138672 42.546875 10.50390625 C41.94166016 10.83277832 41.33644531 11.16165039 40.71289062 11.50048828 C38.92493346 12.47284437 37.14558308 13.45950727 35.3671875 14.44921875 C28.96756394 17.97394694 28.96756394 17.97394694 26.7993927 19.06529236 C24.98622855 19.99948225 23.20770572 21.000905 21.44413757 22.02565002 C10.53012438 28.05836829 0.59977831 28.17247137 -11.65234375 27.93359375 C-13.64870958 27.9205055 -15.64509821 27.91055663 -17.64149475 27.90357971 C-22.84516684 27.87710781 -28.04742733 27.80857083 -33.25054932 27.73065186 C-38.58025019 27.6584868 -43.91018366 27.62695541 -49.24023438 27.59179688 C-59.66076966 27.51717521 -70.08026655 27.39802106 -80.5 27.25 C-80.5 26.92 -80.5 26.59 -80.5 26.25 C-79.695625 26.0540625 -78.89125 25.858125 -78.0625 25.65625 C-55.46579541 19.9079655 -32.07281602 12.46696546 -11.39111328 1.61938477 C-7.56740595 -0.19172606 -4.13588117 -0.11221547 0 0 Z " fill="#100E0D" transform="translate(249.5,492.75)"/>
<path d="M0 0 C3.37462715 0.54723683 5.08235 1.0549 8 3 C7.67 4.65 7.34 6.3 7 8 C7.66 8 8.32 8 9 8 C10.76462683 11.08809695 11 12.23312136 11 16 C11.66 16 12.32 16 13 16 C13.67679658 17.725227 14.34102 19.45538939 15 21.1875 C15.556875 22.63189453 15.556875 22.63189453 16.125 24.10546875 C16.97636772 26.92182358 17.17072647 29.08164439 17 32 C16.01 31.67 15.02 31.34 14 31 C13.3046875 29.00390625 13.3046875 29.00390625 12.875 26.5625 C12.18801726 22.80819961 11.7664016 20.7664016 9 18 C7.43790782 15.01505506 5.99380244 11.98198257 4.53515625 8.9453125 C3.20089415 6.38543052 1.72367059 4.29479726 0 2 C0 1.34 0 0.68 0 0 Z M13 23 C14 25 14 25 14 25 Z " fill="#E7B37F" transform="translate(311,345)"/>
<path d="M0 0 C0.90234375 -0.00386719 1.8046875 -0.00773437 2.734375 -0.01171875 C7.72252479 -0.00444739 12.45841308 0.27638363 17.375 1.125 C17.375 1.455 17.375 1.785 17.375 2.125 C16.66480713 2.11976318 15.95461426 2.11452637 15.22290039 2.10913086 C11.9611095 2.08816239 8.69933286 2.07527719 5.4375 2.0625 C4.32052734 2.05412109 3.20355469 2.04574219 2.05273438 2.03710938 C-5.90683854 2.01376752 -13.60250374 2.30952642 -21.375 4.125 C-27.40570842 5.39962923 -33.48242416 5.75914125 -39.625 6.125 C-35.95670838 3.94665716 -32.07968301 3.29484106 -27.9375 2.5625 C-27.26783203 2.43681641 -26.59816406 2.31113281 -25.90820312 2.18164062 C-17.25138416 0.60241195 -8.79796739 -0.03803156 0 0 Z " fill="#F1B97E" transform="translate(362.625,70.875)"/>
<path d="M0 0 C0.66 0.33 1.32 0.66 2 1 C2.05398987 3.27057377 2.09278742 5.54151288 2.125 7.8125 C2.14820313 9.07707031 2.17140625 10.34164063 2.1953125 11.64453125 C1.95246558 15.81664136 0.28662106 17.57006842 -2 21 C-2.16699232 24.12521833 -2.16699232 24.12521833 -2 27 C-2.66 27 -3.32 27 -4 27 C-4.66 27.66 -5.32 28.32 -6 29 C-6.2977327 24.7935713 -5.37457297 22.21051313 -3.5625 18.4375 C-0.85414624 12.27867295 -0.13034256 6.68301868 0 0 Z M0 12 C1 14 1 14 1 14 Z " fill="#F0AD75" transform="translate(369,400)"/>
<path d="M0 0 C2.56030298 2.56030298 3.65972186 5.21945027 5.1875 8.5 C5.73792969 9.6653125 6.28835937 10.830625 6.85546875 12.03125 C7.23316406 13.0109375 7.61085938 13.990625 8 15 C7.67 15.66 7.34 16.32 7 17 C6.01 17 5.02 17 4 17 C4 15.68 4 14.36 4 13 C2.68 12.67 1.36 12.34 0 12 C-0.19477739 10.37585622 -0.38059458 8.75063577 -0.5625 7.125 C-0.66691406 6.22007813 -0.77132812 5.31515625 -0.87890625 4.3828125 C-1 2 -1 2 0 0 Z M1 5 C2 7 2 7 2 7 Z " fill="#E9AB70" transform="translate(108,47)"/>
<path d="M0 0 C-1.60644531 2.00292969 -1.60644531 2.00292969 -4 4 C-6.93261719 4.27050781 -6.93261719 4.27050781 -10.296875 3.953125 C-11.50214844 3.85 -12.70742188 3.746875 -13.94921875 3.640625 C-15.20347656 3.51171875 -16.45773437 3.3828125 -17.75 3.25 C-19.01972656 3.1365625 -20.28945313 3.023125 -21.59765625 2.90625 C-24.73405371 2.62326677 -27.86725022 2.32049563 -31 2 C-31 1.67 -31 1.34 -31 1 C-26.95841399 0.83133892 -22.91671968 0.66542437 -18.875 0.5 C-17.73289062 0.45230469 -16.59078125 0.40460938 -15.4140625 0.35546875 C-14.30546875 0.31035156 -13.196875 0.26523437 -12.0546875 0.21875 C-10.53077393 0.1559082 -10.53077393 0.1559082 -8.97607422 0.09179688 C-5.98198857 -0.00055556 -2.99530376 -0.01562088 0 0 Z " fill="#E99C4E" transform="translate(308,492)"/>
<path d="M0 0 C6.25 9.375 6.25 9.375 6 16 C6.66 16 7.32 16 8 16 C7.67 18.64 7.34 21.28 7 24 C4.48780099 21.48780099 4.28798663 19.69315898 3.5 16.25 C2.71603397 12.92311876 1.91164154 9.73957508 0.8125 6.5 C0 4 0 4 0 0 Z M4 9 C5 12 5 12 5 12 Z " fill="#DAB286" transform="translate(363,339)"/>
<path d="M0 0 C3.37462715 0.54723683 5.08235 1.0549 8 3 C7.67 4.65 7.34 6.3 7 8 C7.66 8 8.32 8 9 8 C9 10.31 9 12.62 9 15 C6.36115438 12.59888822 4.63586471 9.99444972 2.8125 6.9375 C2.01779297 5.62072266 2.01779297 5.62072266 1.20703125 4.27734375 C0 2 0 2 0 0 Z " fill="#EEB16D" transform="translate(311,345)"/>
<path d="M0 0 C1.60725635 3.21451269 1.05748185 6.43612536 1 10 C0.67 10 0.34 10 0 10 C-0.33 11.65 -0.66 13.3 -1 15 C-1.33 15 -1.66 15 -2 15 C-2.33 11.04 -2.66 7.08 -3 3 C-5.31 5.31 -7.62 7.62 -10 10 C-10.66 9.67 -11.32 9.34 -12 9 C-10.57189185 7.49105554 -9.13218981 5.99307655 -7.6875 4.5 C-6.88699219 3.6646875 -6.08648437 2.829375 -5.26171875 1.96875 C-3 0 -3 0 0 0 Z " fill="#EE9567" transform="translate(100,0)"/>
<path d="M0 0 C1.32 0.33 2.64 0.66 4 1 C4.0825 1.5775 4.165 2.155 4.25 2.75 C4.86490423 5.15372967 4.86490423 5.15372967 6.9375 6.9375 C9.17927845 9.17927845 10.00721577 11.02164731 11 14 C7.1692803 13.45275433 5.63075544 11.71844729 3 9 C2.34 9 1.68 9 1 9 C0.67 6.03 0.34 3.06 0 0 Z " fill="#EEB577" transform="translate(286,235)"/>
<path d="M0 0 C-2.99409505 1.01839968 -5.99544425 2.0129264 -9 3 C-10.7634375 3.5878125 -10.7634375 3.5878125 -12.5625 4.1875 C-16.55686673 5.13162304 -19.9086168 5.14355731 -24 5 C-20.28809631 2.52539754 -16.86188638 1.81244125 -12.5625 0.8125 C-11.79873047 0.62236328 -11.03496094 0.43222656 -10.24804688 0.23632812 C-9.50748047 0.06166016 -8.76691406 -0.11300781 -8.00390625 -0.29296875 C-7.33174072 -0.4530542 -6.6595752 -0.61313965 -5.96704102 -0.77807617 C-3.73643754 -1.02973542 -2.12986947 -0.66240813 0 0 Z " fill="#F4B06B" transform="translate(78,186)"/>
<path d="M0 0 C0.66 0 1.32 0 2 0 C2 0.66 2 1.32 2 2 C2.639375 2.144375 3.27875 2.28875 3.9375 2.4375 C6 3 6 3 7 4 C7.36162029 5.32594105 7.69728039 6.65938457 8 8 C-2.55808656 4.92482916 -2.55808656 4.92482916 -7 3 C-3.94736336 2.01879536 -2.05263664 2.01879536 1 3 C0.67 2.01 0.34 1.02 0 0 Z " fill="#F5AD65" transform="translate(31,244)"/>
<path d="M0 0 C2.64 0 5.28 0 8 0 C8 2.64 8 5.28 8 8 C6.125 7.75 6.125 7.75 4 7 C2.875 5 2.875 5 2 3 C1.34 2.67 0.68 2.34 0 2 C0 1.34 0 0.68 0 0 Z " fill="#EDA059" transform="translate(103,145)"/>
<path d="M0 0 C11.22 0 22.44 0 34 0 C34 0.33 34 0.66 34 1 C22.78 1 11.56 1 0 1 C0 0.67 0 0.34 0 0 Z " fill="#FB9761" transform="translate(190,106)"/>
<path d="M0 0 C1.9375 0.3125 1.9375 0.3125 4 1 C4.33 1.99 4.66 2.98 5 4 C6.62652316 5.70586575 8.29006566 7.3777546 10 9 C9.67 9.66 9.34 10.32 9 11 C4.55092795 9.51697598 2.25420608 5.91714499 0 2 C0 1.34 0 0.68 0 0 Z " fill="#EDB27D" transform="translate(295,249)"/>
<path d="M0 0 C1.65 0 3.3 0 5 0 C2.81945622 4.48222888 0.66939264 6.24897776 -4 8 C-4.99 7.67 -5.98 7.34 -7 7 C-6.030625 6.401875 -5.06125 5.80375 -4.0625 5.1875 C-0.76947958 3.28872491 -0.76947958 3.28872491 0 0 Z " fill="#F5AA6B" transform="translate(279,469)"/>
<path d="M0 0 C0.33 0 0.66 0 1 0 C1 9.57 1 19.14 1 29 C0.67 29 0.34 29 0 29 C0 19.43 0 9.86 0 0 Z " fill="#E69D58" transform="translate(373,371)"/>
<path d="M0 0 C0.44730469 0.39832031 0.89460938 0.79664063 1.35546875 1.20703125 C4.09777661 3.61020509 6.64496641 5.79486948 9.8125 7.625 C12.3074252 9.1932387 12.81526338 10.37320841 14 13 C8.58143868 9.89189123 4.16339678 6.68382138 0 2 C0 1.34 0 0.68 0 0 Z " fill="#F4C481" transform="translate(331,294)"/>
<path d="M0 0 C1.32 0 2.64 0 4 0 C4 0.66 4 1.32 4 2 C4.63808594 2.17015625 5.27617187 2.3403125 5.93359375 2.515625 C6.75988281 2.75796875 7.58617187 3.0003125 8.4375 3.25 C9.26121094 3.48203125 10.08492187 3.7140625 10.93359375 3.953125 C13 5 13 5 13.78515625 7.109375 C13.85605469 7.73328125 13.92695313 8.3571875 14 9 C10.40241608 7.67726488 7.36262865 6.0805802 4.1875 3.9375 C3.39730469 3.41027344 2.60710937 2.88304687 1.79296875 2.33984375 C1.20128906 1.89769531 0.60960937 1.45554687 0 1 C0 0.67 0 0.34 0 0 Z " fill="#F3B777" transform="translate(231,271)"/>
<path d="M0 0 C2 1.375 2 1.375 4 3 C4 3.66 4 4.32 4 5 C-0.29 5.66 -4.58 6.32 -9 7 C-5.89448334 3.89448334 -4.10801767 3.18676066 0 2 C0 1.34 0 0.68 0 0 Z " fill="#F3B370" transform="translate(396,80)"/>
<path d="M0 0 C5.37009266 2.17360893 8.77884637 5.2596498 12 10 C12 10.66 12 11.32 12 12 C11.34 12 10.68 12 10 12 C9.525625 11.195625 9.05125 10.39125 8.5625 9.5625 C7.20016328 6.7081924 7.20016328 6.7081924 4 6 C4 5.34 4 4.68 4 4 C2.68 3.34 1.36 2.68 0 2 C0 1.34 0 0.68 0 0 Z " fill="#EDB892" transform="translate(120,73)"/>
<path d="M0 0 C3.25543229 0.34879632 4.01873107 1.02133261 6.25 3.5625 C6.8275 4.366875 7.405 5.17125 8 6 C7.67 6.66 7.34 7.32 7 8 C5.02 7.34 3.04 6.68 1 6 C0.67 4.02 0.34 2.04 0 0 Z " fill="#ECA079" transform="translate(303,260)"/>
<path d="M0 0 C0 0.66 0 1.32 0 2 C-0.99 2.495 -0.99 2.495 -2 3 C-0.35 3.33 1.3 3.66 3 4 C3 4.33 3 4.66 3 5 C-1.29 5 -5.58 5 -10 5 C-3.33333333 0 -3.33333333 0 0 0 Z " fill="#F7AF62" transform="translate(253,488)"/>
<path d="M0 0 C0.66 0 1.32 0 2 0 C4.42857143 7.42857143 4.42857143 7.42857143 3 11 C2.34 11 1.68 11 1 11 C-1.03684712 6.92630576 -1.0257259 4.41062136 0 0 Z " fill="#E4A879" transform="translate(74,90)"/>
<path d="M0 0 C0.78375 0.33 1.5675 0.66 2.375 1 C4.84332497 2.11866511 4.84332497 2.11866511 7 2 C7 2.66 7 3.32 7 4 C7.99 4.33 8.98 4.66 10 5 C10 5.99 10 6.98 10 8 C6.05205855 6.32971708 3.18203882 3.8204435 0 1 C0 0.67 0 0.34 0 0 Z " fill="#F6B26D" transform="translate(7,234)"/>
<path d="M0 0 C0.77772405 2.33317216 1.42415568 4.61435923 2 7 C0.68 7 -0.64 7 -2 7 C-2.33 7.99 -2.66 8.98 -3 10 C-3.66 9.34 -4.32 8.68 -5 8 C-4.34 7.01 -3.68 6.02 -3 5 C-2.649375 4.29875 -2.29875 3.5975 -1.9375 2.875 C-1 1 -1 1 0 0 Z " fill="#E3A964" transform="translate(307,445)"/>
<path d="M0 0 C1.74271938 2.297221 3.39911152 4.59866729 5 7 C4.625 9.6875 4.625 9.6875 4 12 C1 10 1 10 0.48828125 7.6171875 C0.40126953 6.25980469 0.40126953 6.25980469 0.3125 4.875 C0.24675781 3.96492188 0.18101563 3.05484375 0.11328125 2.1171875 C0.07589844 1.41851562 0.03851563 0.71984375 0 0 Z " fill="#E8AB81" transform="translate(103,37)"/>
<path d="M0 0 C5.17073171 7.75609756 5.17073171 7.75609756 4.5625 12.1875 C4.376875 13.115625 4.19125 14.04375 4 15 C3.67 15 3.34 15 3 15 C2.49363393 13.25183142 1.99515381 11.50137737 1.5 9.75 C1.2215625 8.77546875 0.943125 7.8009375 0.65625 6.796875 C0 4 0 4 0 0 Z " fill="#EFAD75" transform="translate(363,339)"/>
<path d="M0 0 C7.92 0 15.84 0 24 0 C24 0.33 24 0.66 24 1 C16.08 1 8.16 1 0 1 C0 0.67 0 0.34 0 0 Z " fill="#FFE9A4" transform="translate(74,259)"/>
<path d="M0 0 C0.66 0.33 1.32 0.66 2 1 C1.67 2.65 1.34 4.3 1 6 C-0.65 6.33 -2.3 6.66 -4 7 C-3.43628586 3.73045798 -2.50037734 2.17424117 0 0 Z " fill="#F3AA69" transform="translate(300,452)"/>
<path d="M0 0 C2.31 0 4.62 0 7 0 C7 1.32 7 2.64 7 4 C7.66 4 8.32 4 9 4 C8.67 4.66 8.34 5.32 8 6 C6.66402348 5.19185349 5.331275 4.37836819 4 3.5625 C3.2575 3.11003906 2.515 2.65757812 1.75 2.19140625 C1.1725 1.79824219 0.595 1.40507812 0 1 C0 0.67 0 0.34 0 0 Z " fill="#F4B069" transform="translate(219,263)"/>
<path d="M0 0 C7.26 0 14.52 0 22 0 C22 0.33 22 0.66 22 1 C14.74 1 7.48 1 0 1 C0 0.67 0 0.34 0 0 Z " fill="#EF7339" transform="translate(103,179)"/>
<path d="M0 0 C0.33 0 0.66 0 1 0 C1.33 6.93 1.66 13.86 2 21 C1.67 21 1.34 21 1 21 C-0.11165232 16.5621439 -0.11527763 12.23043614 -0.0625 7.6875 C-0.05798828 6.94693359 -0.05347656 6.20636719 -0.04882812 5.44335938 C-0.03712175 3.62887101 -0.01918898 1.81442466 0 0 Z " fill="#ECA153" transform="translate(266,167)"/>
<path d="M0 0 C0 0.66 0 1.32 0 2 C-2.88211302 2.96070434 -4.69850044 3.10581883 -7.6875 3.0625 C-8.89986328 3.04896484 -8.89986328 3.04896484 -10.13671875 3.03515625 C-11.05904297 3.01775391 -11.05904297 3.01775391 -12 3 C-7.74560485 0.81962249 -4.84315381 0 0 0 Z " fill="#ECB676" transform="translate(251,103)"/>
<path d="M0 0 C1.65 0 3.3 0 5 0 C5 0.66 5 1.32 5 2 C6.9600281 3.63676257 6.9600281 3.63676257 9 5 C6.69 5 4.38 5 2 5 C2 4.01 2 3.02 2 2 C1.34 2 0.68 2 0 2 C0 1.34 0 0.68 0 0 Z " fill="#F2AF72" transform="translate(139,91)"/>
<path d="M0 0 C6.93 0 13.86 0 21 0 C21 0.33 21 0.66 21 1 C14.07 1 7.14 1 0 1 C0 0.67 0 0.34 0 0 Z " fill="#FAC97F" transform="translate(352,69)"/>
<path d="M0 0 C0.66 0 1.32 0 2 0 C2 1.32 2 2.64 2 4 C2.66 4 3.32 4 4 4 C3.67 4.99 3.34 5.98 3 7 C-0.875 5.25 -0.875 5.25 -2 3 C-1.34 3 -0.68 3 0 3 C0 2.01 0 1.02 0 0 Z " fill="#E7A066" transform="translate(132,173)"/>
<path d="M0 0 C0.99 0.33 1.98 0.66 3 1 C2.67 1.66 2.34 2.32 2 3 C0.68 3 -0.64 3 -2 3 C-2 3.66 -2 4.32 -2 5 C-3.32 4.67 -4.64 4.34 -6 4 C-3.1875 1.9375 -3.1875 1.9375 0 0 Z " fill="#EFB674" transform="translate(270,477)"/>
<path d="M0 0 C0.99 0 1.98 0 3 0 C2.67 1.65 2.34 3.3 2 5 C0.68 5 -0.64 5 -2 5 C-1.34 3.35 -0.68 1.7 0 0 Z " fill="#F4AF74" transform="translate(318,430)"/>
<path d="M0 0 C4.95 0 9.9 0 15 0 C15 0.33 15 0.66 15 1 C10.05 1 5.1 1 0 1 C0 0.67 0 0.34 0 0 Z " fill="#EBA259" transform="translate(99,258)"/>
<path d="M0 0 C1.98 1.65 3.96 3.3 6 5 C3 5 3 5 1.3125 3.625 C0 2 0 2 0 0 Z " fill="#E2BD4B" transform="translate(2,231)"/>
<path d="M0 0 C0.33 0 0.66 0 1 0 C1 3.63 1 7.26 1 11 C0.67 11 0.34 11 0 11 C0 7.37 0 3.74 0 0 Z " fill="#E1B189" transform="translate(101,10)"/>
<path d="M0 0 C3.3 0 6.6 0 10 0 C10 0.33 10 0.66 10 1 C6.7 1 3.4 1 0 1 C0 0.67 0 0.34 0 0 Z " fill="#E3AE65" transform="translate(63,258)"/>
<path d="M0 0 C3.3 0 6.6 0 10 0 C10 0.33 10 0.66 10 1 C6.7 1 3.4 1 0 1 C0 0.67 0 0.34 0 0 Z " fill="#F0B274" transform="translate(114,257)"/>
<path d="M0 0 C3.3 0 6.6 0 10 0 C10 0.33 10 0.66 10 1 C6.7 1 3.4 1 0 1 C0 0.67 0 0.34 0 0 Z " fill="#F29D48" transform="translate(93,180)"/>
<path d="M0 0 C0.66 0.33 1.32 0.66 2 1 C0.35 2.32 -1.3 3.64 -3 5 C-1.125 1.125 -1.125 1.125 0 0 Z " fill="#EEBA54" transform="translate(6,214)"/>
<path d="M0 0 C2.97 0 5.94 0 9 0 C9 0.33 9 0.66 9 1 C6.03 1 3.06 1 0 1 C0 0.67 0 0.34 0 0 Z " fill="#F7A265" transform="translate(343,70)"/>
<path d="M0 0 C2.64 0 5.28 0 8 0 C8 0.33 8 0.66 8 1 C5.36 1 2.72 1 0 1 C0 0.67 0 0.34 0 0 Z " fill="#E49F72" transform="translate(55,257)"/>
<path d="M0 0 C2.64 0 5.28 0 8 0 C8 0.33 8 0.66 8 1 C5.36 1 2.72 1 0 1 C0 0.67 0 0.34 0 0 Z " fill="#D79C5F" transform="translate(124,256)"/>
<path d="M0 0 C2.64 0 5.28 0 8 0 C8 0.33 8 0.66 8 1 C5.36 1 2.72 1 0 1 C0 0.67 0 0.34 0 0 Z " fill="#B79767" transform="translate(224,105)"/>
<path d="M0 0 C2.64 0 5.28 0 8 0 C8 0.33 8 0.66 8 1 C5.36 1 2.72 1 0 1 C0 0.67 0 0.34 0 0 Z " fill="#E7A777" transform="translate(182,105)"/>
<path d="M0 0 C0.33 0 0.66 0 1 0 C1 2.64 1 5.28 1 8 C0.67 8 0.34 8 0 8 C0 5.36 0 2.72 0 0 Z " fill="#F0B24F" transform="translate(67,66)"/>
<path d="M0 0 C0.33 0 0.66 0 1 0 C1 2.64 1 5.28 1 8 C0.67 8 0.34 8 0 8 C0 5.36 0 2.72 0 0 Z " fill="#E6C26C" transform="translate(67,47)"/>
<path d="M0 0 C2.31 0 4.62 0 7 0 C7 0.33 7 0.66 7 1 C4.69 1 2.38 1 0 1 C0 0.67 0 0.34 0 0 Z " fill="#FF794E" transform="translate(132,255)"/>
<path d="M0 0 C2.31 0 4.62 0 7 0 C7 0.33 7 0.66 7 1 C4.69 1 2.38 1 0 1 C0 0.67 0 0.34 0 0 Z " fill="#E08554" transform="translate(79,182)"/>
<path d="M0 0 C2.31 0 4.62 0 7 0 C7 0.33 7 0.66 7 1 C4.69 1 2.38 1 0 1 C0 0.67 0 0.34 0 0 Z " fill="#FF9A5D" transform="translate(86,181)"/>
<path d="M0 0 C2.31 0 4.62 0 7 0 C7 0.33 7 0.66 7 1 C4.69 1 2.38 1 0 1 C0 0.67 0 0.34 0 0 Z " fill="#F57957" transform="translate(232,104)"/>
<path d="M0 0 C2.31 0 4.62 0 7 0 C7 0.33 7 0.66 7 1 C4.69 1 2.38 1 0 1 C0 0.67 0 0.34 0 0 Z " fill="#FFA973" transform="translate(373,70)"/>
<path d="M0 0 C0.33 0 0.66 0 1 0 C1 1.98 1 3.96 1 6 C0.67 6 0.34 6 0 6 C0 4.02 0 2.04 0 0 Z " fill="#E6B18A" transform="translate(372,400)"/>
<path d="M0 0 C0.33 0 0.66 0 1 0 C1 1.98 1 3.96 1 6 C0.67 6 0.34 6 0 6 C0 4.02 0 2.04 0 0 Z " fill="#E69B78" transform="translate(372,365)"/>
<path d="M0 0 C1.98 0 3.96 0 6 0 C6 0.33 6 0.66 6 1 C4.02 1 2.04 1 0 1 C0 0.67 0 0.34 0 0 Z " fill="#DF6A38" transform="translate(49,256)"/>
<path d="M0 0 C1.98 0 3.96 0 6 0 C6 0.33 6 0.66 6 1 C4.02 1 2.04 1 0 1 C0 0.67 0 0.34 0 0 Z " fill="#F4A258" transform="translate(139,254)"/>
<path d="M0 0 C1.98 0 3.96 0 6 0 C6 0.33 6 0.66 6 1 C4.02 1 2.04 1 0 1 C0 0.67 0 0.34 0 0 Z " fill="#FF8D4A" transform="translate(156,251)"/>
<path d="M0 0 C1.98 0 3.96 0 6 0 C6 0.33 6 0.66 6 1 C4.02 1 2.04 1 0 1 C0 0.67 0 0.34 0 0 Z " fill="#E99B62" transform="translate(337,71)"/>
<path d="M0 0 C0.33 0 0.66 0 1 0 C1 1.65 1 3.3 1 5 C0.67 5 0.34 5 0 5 C0 3.35 0 1.7 0 0 Z " fill="#F2AE76" transform="translate(371,406)"/>
<path d="M0 0 C0.33 0 0.66 0 1 0 C1 1.65 1 3.3 1 5 C0.67 5 0.34 5 0 5 C0 3.35 0 1.7 0 0 Z " fill="#F26A3F" transform="translate(327,404)"/>
<path d="M0 0 C0.33 0 0.66 0 1 0 C1 1.65 1 3.3 1 5 C0.67 5 0.34 5 0 5 C0 3.35 0 1.7 0 0 Z " fill="#F2C772" transform="translate(327,381)"/>
<path d="M0 0 C0.33 0 0.66 0 1 0 C1 1.65 1 3.3 1 5 C0.67 5 0.34 5 0 5 C0 3.35 0 1.7 0 0 Z " fill="#BF6E48" transform="translate(371,360)"/>
<path d="M0 0 C1.65 0 3.3 0 5 0 C5 0.33 5 0.66 5 1 C3.35 1 1.7 1 0 1 C0 0.67 0 0.34 0 0 Z " fill="#FF986A" transform="translate(146,253)"/>
<path d="M0 0 C1.65 0 3.3 0 5 0 C5 0.33 5 0.66 5 1 C3.35 1 1.7 1 0 1 C0 0.67 0 0.34 0 0 Z " fill="#D8A15D" transform="translate(151,252)"/>
<path d="M0 0 C1.65 0 3.3 0 5 0 C5 0.33 5 0.66 5 1 C3.35 1 1.7 1 0 1 C0 0.67 0 0.34 0 0 Z " fill="#D4875D" transform="translate(162,250)"/>
<path d="M0 0 C1.65 0 3.3 0 5 0 C5 0.33 5 0.66 5 1 C3.35 1 1.7 1 0 1 C0 0.67 0 0.34 0 0 Z " fill="#E56E37" transform="translate(64,185)"/>
<path d="M0 0 C1.65 0 3.3 0 5 0 C5 0.33 5 0.66 5 1 C3.35 1 1.7 1 0 1 C0 0.67 0 0.34 0 0 Z " fill="#CB9865" transform="translate(69,184)"/>
<path d="M0 0 C1.65 0 3.3 0 5 0 C5 0.33 5 0.66 5 1 C3.35 1 1.7 1 0 1 C0 0.67 0 0.34 0 0 Z " fill="#F2A55D" transform="translate(74,183)"/>
<path d="M0 0 C1.65 0 3.3 0 5 0 C5 0.33 5 0.66 5 1 C3.35 1 1.7 1 0 1 C0 0.67 0 0.34 0 0 Z " fill="#FF0000" transform="translate(126,178)"/>
<path d="M0 0 C1.65 0 3.3 0 5 0 C5 0.33 5 0.66 5 1 C3.35 1 1.7 1 0 1 C0 0.67 0 0.34 0 0 Z " fill="#F2A96A" transform="translate(177,104)"/>
<path d="M0 0 C1.65 0 3.3 0 5 0 C5 0.33 5 0.66 5 1 C3.35 1 1.7 1 0 1 C0 0.67 0 0.34 0 0 Z " fill="#FF9448" transform="translate(172,103)"/>
<path d="M0 0 C1.65 0 3.3 0 5 0 C5 0.33 5 0.66 5 1 C3.35 1 1.7 1 0 1 C0 0.67 0 0.34 0 0 Z " fill="#F2A16A" transform="translate(327,73)"/>
<path d="M0 0 C1.65 0 3.3 0 5 0 C5 0.33 5 0.66 5 1 C3.35 1 1.7 1 0 1 C0 0.67 0 0.34 0 0 Z " fill="#EEAE61" transform="translate(332,72)"/>
<path d="M0 0 C0.33 0 0.66 0 1 0 C1 1.65 1 3.3 1 5 C0.67 5 0.34 5 0 5 C0 3.35 0 1.7 0 0 Z " fill="#FFC361" transform="translate(68,42)"/>
<path d="M0 0 C4 1 4 1 4 1 Z " fill="#555555" transform="translate(174,516)"/>
<path d="M0 0 C0.66 0.33 1.32 0.66 2 1 C1.01 1 0.02 1 -1 1 C-0.67 0.67 -0.34 0.34 0 0 Z " fill="#FFC994" transform="translate(329,476)"/>
<path d="M0 0 C1 4 1 4 1 4 Z " fill="#FFA974" transform="translate(326,409)"/>
<path d="M0 0 C1 4 1 4 1 4 Z " fill="#E9BF35" transform="translate(326,377)"/>
<path d="M0 0 C0.99 0.33 1.98 0.66 3 1 C2.01 1 1.02 1 0 1 C0 0.67 0 0.34 0 0 Z " fill="#FFAA35" transform="translate(243,281)"/>
<path d="M0 0 C4 1 4 1 4 1 Z " fill="#C9A934" transform="translate(45,255)"/>
<path d="M0 0 C4 1 4 1 4 1 Z " fill="#EF8A64" transform="translate(41,254)"/>
<path d="M0 0 C4 1 4 1 4 1 Z " fill="#FFCF7F" transform="translate(37,253)"/>
<path d="M0 0 C4 1 4 1 4 1 Z " fill="#D9B43A" transform="translate(167,249)"/>
<path d="M0 0 C4 1 4 1 4 1 Z " fill="#FFB964" transform="translate(171,248)"/>
<path d="M0 0 C4 1 4 1 4 1 Z " fill="#EF6A44" transform="translate(175,247)"/>
<path d="M0 0 C4 1 4 1 4 1 Z " fill="#9F745F" transform="translate(179,246)"/>
<path d="M0 0 C4 1 4 1 4 1 Z " fill="#EF943A" transform="translate(183,245)"/>
<path d="M0 0 C4 1 4 1 4 1 Z " fill="#FF9F6F" transform="translate(57,187)"/>
<path d="M0 0 C4 1 4 1 4 1 Z " fill="#C98F54" transform="translate(239,103)"/>
<path d="M0 0 C4 1 4 1 4 1 Z " fill="#FFBF74" transform="translate(243,102)"/>
<path d="M0 0 C4 1 4 1 4 1 Z " fill="#D98A64" transform="translate(168,102)"/>
<path d="M0 0 C4 1 4 1 4 1 Z " fill="#FF7F2F" transform="translate(247,101)"/>
<path d="M0 0 C4 1 4 1 4 1 Z " fill="#FF742F" transform="translate(371,92)"/>
<path d="M0 0 C4 1 4 1 4 1 Z " fill="#FF9A74" transform="translate(378,90)"/>
<path d="M0 0 C4 1 4 1 4 1 Z " fill="#DF8A64" transform="translate(382,89)"/>
<path d="M0 0 C4 1 4 1 4 1 Z " fill="#EF6A44" transform="translate(386,88)"/>
<path d="M0 0 C4 1 4 1 4 1 Z " fill="#D9B47A" transform="translate(391,87)"/>
<path d="M0 0 C4 1 4 1 4 1 Z " fill="#FFC974" transform="translate(396,86)"/>
<path d="M0 0 C4 1 4 1 4 1 Z " fill="#FFA925" transform="translate(315,76)"/>
<path d="M0 0 C4 1 4 1 4 1 Z " fill="#EFA964" transform="translate(319,75)"/>
<path d="M0 0 C4 1 4 1 4 1 Z " fill="#FFB974" transform="translate(323,74)"/>
<path d="M0 0 C1 4 1 4 1 4 Z " fill="#DD702E" transform="translate(105,37)"/>
<path d="M0 0 C3 1 3 1 3 1 Z " fill="#2A2A2A" transform="translate(171,517)"/>
<path d="M0 0 C3 1 3 1 3 1 Z " fill="#3F3F3F" transform="translate(178,515)"/>
<path d="M0 0 C3 1 3 1 3 1 Z " fill="#717171" transform="translate(181,514)"/>
<path d="M0 0 C3 1 3 1 3 1 Z " fill="#717171" transform="translate(184,513)"/>
<path d="M0 0 C3 1 3 1 3 1 Z " fill="#2A2A2A" transform="translate(187,512)"/>
<path d="M0 0 C3 1 3 1 3 1 Z " fill="#2A2A2A" transform="translate(191,511)"/>
<path d="M0 0 C3 1 3 1 3 1 Z " fill="#1C1C1C" transform="translate(199,508)"/>
<path d="M0 0 C3 1 3 1 3 1 Z " fill="#717171" transform="translate(202,507)"/>
<path d="M0 0 C3 1 3 1 3 1 Z " fill="#555555" transform="translate(205,506)"/>
<path d="M0 0 C3 1 3 1 3 1 Z " fill="#1C1C1C" transform="translate(210,504)"/>
<path d="M0 0 C3 1 3 1 3 1 Z " fill="#2A2A2A" transform="translate(213,503)"/>
<path d="M0 0 C3 1 3 1 3 1 Z " fill="#1C1C1C" transform="translate(220,500)"/>
<path d="M0 0 C3 1 3 1 3 1 Z " fill="#1C1C1C" transform="translate(227,497)"/>
<path d="M0 0 C3 1 3 1 3 1 Z " fill="#151515" transform="translate(232,495)"/>
<path d="M0 0 C3 1 3 1 3 1 Z " fill="#1C1C1C" transform="translate(236,493)"/>
<path d="M0 0 C0.99 0.495 0.99 0.495 2 1 C1.01 1.495 1.01 1.495 0 2 C0 1.34 0 0.68 0 0 Z " fill="#FF551C" transform="translate(302,450)"/>
<path d="" fill="#FFA93F" transform="translate(0,0)"/>
<path d="" fill="#D47F54" transform="translate(0,0)"/>
<path d="" fill="#E9D43F" transform="translate(0,0)"/>
<path d="" fill="#E9A954" transform="translate(0,0)"/>
<path d="" fill="#FFB838" transform="translate(0,0)"/>
<path d="" fill="#C68D71" transform="translate(0,0)"/>
<path d="M0 0 C3 1 3 1 3 1 Z " fill="#FFC638" transform="translate(34,252)"/>
<path d="M0 0 C3 1 3 1 3 1 Z " fill="#FF8D46" transform="translate(31,251)"/>
<path d="M0 0 C3 1 3 1 3 1 Z " fill="#FF8D38" transform="translate(24,248)"/>
<path d="M0 0 C3 1 3 1 3 1 Z " fill="#C6551C" transform="translate(37,194)"/>
<path d="M0 0 C3 1 3 1 3 1 Z " fill="#FFB81C" transform="translate(42,192)"/>
<path d="M0 0 C3 1 3 1 3 1 Z " fill="#945454" transform="translate(45,191)"/>
<path d="M0 0 C3 1 3 1 3 1 Z " fill="#FF8D46" transform="translate(48,190)"/>
<path d="M0 0 C3 1 3 1 3 1 Z " fill="#E9A93F" transform="translate(51,189)"/>
<path d="M0 0 C3 1 3 1 3 1 Z " fill="#FF8654" transform="translate(54,188)"/>
<path d="M0 0 C3 1 3 1 3 1 Z " fill="#BF8D5B" transform="translate(61,186)"/>
<path d="M0 0 C3 1 3 1 3 1 Z " fill="#947F7F" transform="translate(326,108)"/>
<path d="M0 0 C3 1 3 1 3 1 Z " fill="#D4B871" transform="translate(333,105)"/>
<path d="M0 0 C3 1 3 1 3 1 Z " fill="#D48D71" transform="translate(338,103)"/>
<path d="M0 0 C3 1 3 1 3 1 Z " fill="#FF6346" transform="translate(343,101)"/>
<path d="M0 0 C3 1 3 1 3 1 Z " fill="#FFC6AA" transform="translate(165,101)"/>
<path d="M0 0 C3 1 3 1 3 1 Z " fill="#E2AA8D" transform="translate(346,100)"/>
<path d="M0 0 C3 1 3 1 3 1 Z " fill="#E9B886" transform="translate(251,100)"/>
<path d="M0 0 C3 1 3 1 3 1 Z " fill="#FFC68D" transform="translate(162,100)"/>
<path d="M0 0 C3 1 3 1 3 1 Z " fill="#FFC68D" transform="translate(349,99)"/>
<path d="M0 0 C3 1 3 1 3 1 Z " fill="#E96331" transform="translate(254,99)"/>
<path d="M0 0 C3 1 3 1 3 1 Z " fill="#FFAA1C" transform="translate(159,99)"/>
<path d="M0 0 C3 1 3 1 3 1 Z " fill="#E2AA71" transform="translate(352,98)"/>
<path d="M0 0 C3 1 3 1 3 1 Z " fill="#E9B831" transform="translate(257,98)"/>
<path d="M0 0 C3 1 3 1 3 1 Z " fill="#FF8D71" transform="translate(156,98)"/>
<path d="M0 0 C3 1 3 1 3 1 Z " fill="#FFB831" transform="translate(355,97)"/>
<path d="M0 0 C3 1 3 1 3 1 Z " fill="#FFAA1C" transform="translate(260,97)"/>
<path d="M0 0 C3 1 3 1 3 1 Z " fill="#FFC68D" transform="translate(358,96)"/>
<path d="M0 0 C3 1 3 1 3 1 Z " fill="#E9B16A" transform="translate(361,95)"/>
<path d="M0 0 C3 1 3 1 3 1 Z " fill="#FF631C" transform="translate(265,95)"/>
<path d="M0 0 C3 1 3 1 3 1 Z " fill="#FFBF54" transform="translate(364,94)"/>
<path d="M0 0 C3 1 3 1 3 1 Z " fill="#E9B8A2" transform="translate(368,93)"/>
<path d="M0 0 C3 1 3 1 3 1 Z " fill="#FF8D5B" transform="translate(375,91)"/>
<path d="" fill="#BF543F" transform="translate(0,0)"/>
<path d="M0 0 C3 1 3 1 3 1 Z " fill="#AA381C" transform="translate(276,90)"/>
<path d="" fill="#FFC68D" transform="translate(0,0)"/>
<path d="M0 0 C3 1 3 1 3 1 Z " fill="#FFB81C" transform="translate(283,87)"/>
<path d="M0 0 C3 1 3 1 3 1 Z " fill="#FFB871" transform="translate(288,85)"/>
<path d="M0 0 C3 1 3 1 3 1 Z " fill="#FFC671" transform="translate(293,83)"/>
<path d="M0 0 C3 1 3 1 3 1 Z " fill="#FFC638" transform="translate(296,82)"/>
<path d="M0 0 C3 1 3 1 3 1 Z " fill="#E9BF7F" transform="translate(299,81)"/>
<path d="M0 0 C0.66 0 1.32 0 2 0 C1.67 0.66 1.34 1.32 1 2 C0.67 1.34 0.34 0.68 0 0 Z " fill="#715538" transform="translate(398,80)"/>
<path d="M0 0 C3 1 3 1 3 1 Z " fill="#FFC68D" transform="translate(302,80)"/>
<path d="M0 0 C3 1 3 1 3 1 Z " fill="#E9B886" transform="translate(305,79)"/>
<path d="M0 0 C3 1 3 1 3 1 Z " fill="#E9D494" transform="translate(308,78)"/>
<path d="M0 0 C3 1 3 1 3 1 Z " fill="#FFB8A2" transform="translate(312,77)"/>
<path d="M0 0 C3 1 3 1 3 1 Z " fill="#FFB8A2" transform="translate(384,72)"/>
<path d="M0 0 C3 1 3 1 3 1 Z " fill="#D47F54" transform="translate(380,71)"/>
<path d="" fill="#E9713F" transform="translate(0,0)"/>
<path d="" fill="#FFB871" transform="translate(0,0)"/>
<path d="M0 0 C2 1 2 1 2 1 Z " fill="#3F3F3F" transform="translate(261,519)"/>
<path d="M0 0 C2 1 2 1 2 1 Z " fill="#7F7F3F" transform="translate(263,518)"/>
<path d="M0 0 C2 1 2 1 2 1 Z " fill="#55552A" transform="translate(265,517)"/>
<path d="M0 0 C2 1 2 1 2 1 Z " fill="#FFD42A" transform="translate(268,516)"/>
<path d="M0 0 C2 1 2 1 2 1 Z " fill="#DFBFBF" transform="translate(270,515)"/>
<path d="M0 0 C2 1 2 1 2 1 Z " fill="#D4D4AA" transform="translate(272,514)"/>
<path d="M0 0 C2 1 2 1 2 1 Z " fill="#FFD4D4" transform="translate(274,513)"/>
<path d="M0 0 C2 1 2 1 2 1 Z " fill="#FFD4D4" transform="translate(276,512)"/>
<path d="M0 0 C2 1 2 1 2 1 Z " fill="#FFD455" transform="translate(278,511)"/>
<path d="M0 0 C2 1 2 1 2 1 Z " fill="#3F3F3F" transform="translate(194,510)"/>
<path d="M0 0 C2 1 2 1 2 1 Z " fill="#55552A" transform="translate(281,509)"/>
<path d="M0 0 C2 1 2 1 2 1 Z " fill="#3F3F3F" transform="translate(197,509)"/>
<path d="M0 0 C2 1 2 1 2 1 Z " fill="#7F7F3F" transform="translate(283,508)"/>
<path d="M0 0 C2 1 2 1 2 1 Z " fill="#6A3F3F" transform="translate(285,507)"/>
<path d="M0 0 C2 1 2 1 2 1 Z " fill="#BFBF9F" transform="translate(287,506)"/>
<path d="M0 0 C2 1 2 1 2 1 Z " fill="#3F3F3F" transform="translate(208,505)"/>
<path d="M0 0 C2 1 2 1 2 1 Z " fill="#3F3F3F" transform="translate(290,504)"/>
<path d="M0 0 C2 1 2 1 2 1 Z " fill="#7F7F7F" transform="translate(292,503)"/>
<path d="M0 0 C2 1 2 1 2 1 Z " fill="#1F1F1F" transform="translate(294,502)"/>
<path d="M0 0 C2 1 2 1 2 1 Z " fill="#3F3F3F" transform="translate(216,502)"/>
<path d="M0 0 C2 1 2 1 2 1 Z " fill="#5F5F5F" transform="translate(218,501)"/>
<path d="M0 0 C2 1 2 1 2 1 Z " fill="#000000" transform="translate(297,500)"/>
<path d="M0 0 C2 1 2 1 2 1 Z " fill="#000000" transform="translate(299,499)"/>
<path d="M0 0 C2 1 2 1 2 1 Z " fill="#3F3F3F" transform="translate(223,499)"/>
<path d="M0 0 C2 1 2 1 2 1 Z " fill="#1F1F1F" transform="translate(225,498)"/>
<path d="M0 0 C2 1 2 1 2 1 Z " fill="#7F7F7F" transform="translate(302,497)"/>
<path d="M0 0 C2 1 2 1 2 1 Z " fill="#3F3F3F" transform="translate(230,496)"/>
<path d="M0 0 C2 1 2 1 2 1 Z " fill="#D46A3F" transform="translate(309,492)"/>
<path d="M0 0 C2 1 2 1 2 1 Z " fill="#3F3F3F" transform="translate(239,492)"/>
<path d="M0 0 C2 1 2 1 2 1 Z " fill="#3F3F3F" transform="translate(241,491)"/>
<path d="M0 0 C2 1 2 1 2 1 Z " fill="#FFD42A" transform="translate(312,490)"/>
<path d="M0 0 C2 1 2 1 2 1 Z " fill="#D4D4AA" transform="translate(243,490)"/>
<path d="M0 0 C2 1 2 1 2 1 Z " fill="#FFD4AA" transform="translate(245,489)"/>
<path d="M0 0 C2 1 2 1 2 1 Z " fill="#DF7F5F" transform="translate(247,488)"/>
<path d="M0 0 C2 1 2 1 2 1 Z " fill="#FFD47F" transform="translate(316,487)"/>
<path d="M0 0 C2 1 2 1 2 1 Z " fill="#DF7F5F" transform="translate(249,487)"/>
<path d="M0 0 C2 1 2 1 2 1 Z " fill="#FFD46A" transform="translate(251,486)"/>
<path d="M0 0 C2 1 2 1 2 1 Z " fill="#FF7F3F" transform="translate(253,485)"/>
<path d="M0 0 C2 1 2 1 2 1 Z " fill="#FF7F3F" transform="translate(255,484)"/>
<path d="M0 0 C2 1 2 1 2 1 Z " fill="#FFBF7F" transform="translate(322,482)"/>
<path d="M0 0 C2 1 2 1 2 1 Z " fill="#FFD4AA" transform="translate(260,481)"/>
<path d="M0 0 C2 1 2 1 2 1 Z " fill="#FF6A3F" transform="translate(262,480)"/>
<path d="M0 0 C2 1 2 1 2 1 Z " fill="#DFBF9F" transform="translate(265,478)"/>
<path d="M0 0 C2 1 2 1 2 1 Z " fill="#FF7F3F" transform="translate(267,477)"/>
<path d="M0 0 C2 1 2 1 2 1 Z " fill="#DFBF1F" transform="translate(270,475)"/>
<path d="M0 0 C2 1 2 1 2 1 Z " fill="#FF7F3F" transform="translate(272,474)"/>
<path d="M0 0 C2 1 2 1 2 1 Z " fill="#FFBF3F" transform="translate(275,472)"/>
<path d="M0 0 C2 1 2 1 2 1 Z " fill="#FFBF7F" transform="translate(282,467)"/>
<path d="" fill="#FFFF3F" transform="translate(0,0)"/>
<path d="" fill="#FFD46A" transform="translate(0,0)"/>
<path d="" fill="#FF946A" transform="translate(0,0)"/>
<path d="" fill="#FFAA55" transform="translate(0,0)"/>
<path d="" fill="#FF946A" transform="translate(0,0)"/>
<path d="M0 0 C2 1 2 1 2 1 Z " fill="#FFAA7F" transform="translate(277,308)"/>
<path d="M0 0 C2 1 2 1 2 1 Z " fill="#D4AA7F" transform="translate(270,302)"/>
<path d="M0 0 C2 1 2 1 2 1 Z " fill="#FFAA7F" transform="translate(264,297)"/>
<path d="M0 0 C2 1 2 1 2 1 Z " fill="#FFDF1F" transform="translate(260,294)"/>
<path d="M0 0 C2 1 2 1 2 1 Z " fill="#D4AAAA" transform="translate(255,290)"/>
<path d="M0 0 C2 1 2 1 2 1 Z " fill="#FF3F3F" transform="translate(251,287)"/>
<path d="M0 0 C2 1 2 1 2 1 Z " fill="#BF7F3F" transform="translate(247,284)"/>
<path d="M0 0 C2 1 2 1 2 1 Z " fill="#FF7F3F" transform="translate(240,279)"/>
<path d="M0 0 C2 1 2 1 2 1 Z " fill="#FFBF7F" transform="translate(237,277)"/>
<path d="M0 0 C2 1 2 1 2 1 Z " fill="#FFD4AA" transform="translate(234,275)"/>
<path d="M0 0 C2 1 2 1 2 1 Z " fill="#FFD4AA" transform="translate(231,273)"/>
<path d="M0 0 C2 1 2 1 2 1 Z " fill="#FFD4AA" transform="translate(228,271)"/>
<path d="M0 0 C2 1 2 1 2 1 Z " fill="#FFDF9F" transform="translate(225,269)"/>
<path d="M0 0 C2 1 2 1 2 1 Z " fill="#FFD4AA" transform="translate(222,267)"/>
<path d="M0 0 C2 1 2 1 2 1 Z " fill="#FF7F3F" transform="translate(219,265)"/>
<path d="M0 0 C2 1 2 1 2 1 Z " fill="#DFBF9F" transform="translate(217,264)"/>
<path d="M0 0 C2 1 2 1 2 1 Z " fill="#FFD4AA" transform="translate(214,262)"/>
<path d="M0 0 C2 1 2 1 2 1 Z " fill="#FF7F3F" transform="translate(211,260)"/>
<path d="M0 0 C2 1 2 1 2 1 Z " fill="#5F3F3F" transform="translate(209,259)"/>
<path d="M0 0 C2 1 2 1 2 1 Z " fill="#FF946A" transform="translate(206,257)"/>
<path d="M0 0 C2 1 2 1 2 1 Z " fill="#D4552A" transform="translate(203,255)"/>
<path d="M0 0 C2 1 2 1 2 1 Z " fill="#D46A6A" transform="translate(201,254)"/>
<path d="M0 0 C2 1 2 1 2 1 Z " fill="#FFDF9F" transform="translate(199,253)"/>
<path d="M0 0 C2 1 2 1 2 1 Z " fill="#FF7F3F" transform="translate(196,251)"/>
<path d="M0 0 C2 1 2 1 2 1 Z " fill="#FFD42A" transform="translate(194,250)"/>
<path d="M0 0 C2 1 2 1 2 1 Z " fill="#DFBF9F" transform="translate(29,250)"/>
<path d="M0 0 C2 1 2 1 2 1 Z " fill="#D4942A" transform="translate(27,249)"/>
<path d="M0 0 C2 1 2 1 2 1 Z " fill="#FF7F3F" transform="translate(191,248)"/>
<path d="M0 0 C2 1 2 1 2 1 Z " fill="#FF946A" transform="translate(189,247)"/>
<path d="M0 0 C2 1 2 1 2 1 Z " fill="#FFD4AA" transform="translate(22,247)"/>
<path d="M0 0 C2 1 2 1 2 1 Z " fill="#FFDF9F" transform="translate(187,246)"/>
<path d="M0 0 C2 1 2 1 2 1 Z " fill="#94942A" transform="translate(19,245)"/>
<path d="M0 0 C2 1 2 1 2 1 Z " fill="#FF7F3F" transform="translate(17,244)"/>
<path d="M0 0 C2 1 2 1 2 1 Z " fill="#FFD42A" transform="translate(15,243)"/>
<path d="M0 0 C2 1 2 1 2 1 Z " fill="#BF7F3F" transform="translate(11,240)"/>
<path d="" fill="#FFD46A" transform="translate(0,0)"/>
<path d="" fill="#AA7F55" transform="translate(0,0)"/>
<path d="" fill="#D4942A" transform="translate(0,0)"/>
<path d="M0 0 C2 1 2 1 2 1 Z " fill="#FF7F3F" transform="translate(16,206)"/>
<path d="" fill="#B4944A" transform="translate(0,0)"/>
<path d="M0 0 C2 1 2 1 2 1 Z " fill="#FF7F3F" transform="translate(22,202)"/>
<path d="M0 0 C2 1 2 1 2 1 Z " fill="#FF5555" transform="translate(24,201)"/>
<path d="M0 0 C2 1 2 1 2 1 Z " fill="#FFD42A" transform="translate(27,199)"/>
<path d="M0 0 C2 1 2 1 2 1 Z " fill="#FFD4AA" transform="translate(29,198)"/>
<path d="M0 0 C2 1 2 1 2 1 Z " fill="#FFD4AA" transform="translate(31,197)"/>
<path d="M0 0 C2 1 2 1 2 1 Z " fill="#DFBF9F" transform="translate(33,196)"/>
<path d="M0 0 C2 1 2 1 2 1 Z " fill="#FFD4AA" transform="translate(35,195)"/>
<path d="M0 0 C2 1 2 1 2 1 Z " fill="#DF7F5F" transform="translate(40,193)"/>
<path d="" fill="#D4AA6A" transform="translate(0,0)"/>
<path d="M0 0 C2 1 2 1 2 1 Z " fill="#E5CCB2" transform="translate(292,128)"/>
<path d="M0 0 C2 1 2 1 2 1 Z " fill="#FFD4AA" transform="translate(296,125)"/>
<path d="M0 0 C2 1 2 1 2 1 Z " fill="#FFD4AA" transform="translate(299,123)"/>
<path d="M0 0 C2 1 2 1 2 1 Z " fill="#FFAA7F" transform="translate(302,121)"/>
<path d="M0 0 C2 1 2 1 2 1 Z " fill="#FF3F3F" transform="translate(305,119)"/>
<path d="M0 0 C2 1 2 1 2 1 Z " fill="#FFD4AA" transform="translate(307,118)"/>
<path d="M0 0 C2 1 2 1 2 1 Z " fill="#FF552A" transform="translate(310,116)"/>
<path d="M0 0 C2 1 2 1 2 1 Z " fill="#FF7F3F" transform="translate(314,114)"/>
<path d="" fill="#FFBF7F" transform="translate(0,0)"/>
<path d="M0 0 C2 1 2 1 2 1 Z " fill="#FF7F3F" transform="translate(316,113)"/>
<path d="M0 0 C2 1 2 1 2 1 Z " fill="#FF946A" transform="translate(318,112)"/>
<path d="" fill="#FFD46A" transform="translate(0,0)"/>
<path d="M0 0 C2 1 2 1 2 1 Z " fill="#D4AA3F" transform="translate(320,111)"/>
<path d="M0 0 C2 1 2 1 2 1 Z " fill="#FFAA55" transform="translate(322,110)"/>
<path d="M0 0 C2 1 2 1 2 1 Z " fill="#FF942A" transform="translate(324,109)"/>
<path d="M0 0 C2 1 2 1 2 1 Z " fill="#DFBF9F" transform="translate(329,107)"/>
<path d="M0 0 C2 1 2 1 2 1 Z " fill="#FFD46A" transform="translate(331,106)"/>
<path d="M0 0 C2 1 2 1 2 1 Z " fill="#DF7F5F" transform="translate(336,104)"/>
<path d="M0 0 C2 1 2 1 2 1 Z " fill="#DFBF5F" transform="translate(341,102)"/>
<path d="" fill="#FF946A" transform="translate(0,0)"/>
<path d="M0 0 C2 1 2 1 2 1 Z " fill="#FF946A" transform="translate(154,97)"/>
<path d="M0 0 C2 1 2 1 2 1 Z " fill="#FF7F5F" transform="translate(263,96)"/>
<path d="M0 0 C2 1 2 1 2 1 Z " fill="#DFBF9F" transform="translate(152,96)"/>
<path d="M0 0 C2 1 2 1 2 1 Z " fill="#DFBFBF" transform="translate(150,95)"/>
<path d="M0 0 C2 1 2 1 2 1 Z " fill="#FF946A" transform="translate(268,94)"/>
<path d="M0 0 C2 1 2 1 2 1 Z " fill="#FFD4AA" transform="translate(148,94)"/>
<path d="M0 0 C2 1 2 1 2 1 Z " fill="#DFBF9F" transform="translate(270,93)"/>
<path d="M0 0 C2 1 2 1 2 1 Z " fill="#DFBF9F" transform="translate(146,93)"/>
<path d="M0 0 C2 1 2 1 2 1 Z " fill="#FFD42A" transform="translate(272,92)"/>
<path d="M0 0 C2 1 2 1 2 1 Z " fill="#FF946A" transform="translate(144,92)"/>
<path d="M0 0 C2 1 2 1 2 1 Z " fill="#FFD4AA" transform="translate(274,91)"/>
<path d="M0 0 C2 1 2 1 2 1 Z " fill="#FFAA55" transform="translate(279,89)"/>
<path d="M0 0 C2 1 2 1 2 1 Z " fill="#FFAA3F" transform="translate(139,89)"/>
<path d="M0 0 C2 1 2 1 2 1 Z " fill="#DF7F5F" transform="translate(281,88)"/>
<path d="M0 0 C2 1 2 1 2 1 Z " fill="#DFBF5F" transform="translate(286,86)"/>
<path d="M0 0 C2 1 2 1 2 1 Z " fill="#FF946A" transform="translate(291,84)"/>
<path d="M0 0 C2 1 2 1 2 1 Z " fill="#FFD4AA" transform="translate(393,76)"/>
<path d="M0 0 C2 1 2 1 2 1 Z " fill="#BF943F" transform="translate(391,75)"/>
<path d="M0 0 C2 1 2 1 2 1 Z " fill="#FFD46A" transform="translate(389,74)"/>
<path d="M0 0 C2 1 2 1 2 1 Z " fill="#BF946A" transform="translate(387,73)"/>
<path d="" fill="#DFBF5F" transform="translate(0,0)"/>
<path d="" fill="#FF9494" transform="translate(0,0)"/>
<path d="" fill="#AAAA55" transform="translate(0,0)"/>
<path d="" fill="#AA5555" transform="translate(0,0)"/>
<path d="" fill="#555555" transform="translate(0,0)"/>
<path d="" fill="#555555" transform="translate(0,0)"/>
<path d="" fill="#FFFF7F" transform="translate(0,0)"/>
<path d="" fill="#BF7F7F" transform="translate(0,0)"/>
<path d="" fill="#FF7F7F" transform="translate(0,0)"/>
<path d="" fill="#555500" transform="translate(0,0)"/>
<path d="" fill="#FFAA55" transform="translate(0,0)"/>
<path d="" fill="#FFAAAA" transform="translate(0,0)"/>
<path d="" fill="#FFFF7F" transform="translate(0,0)"/>
<path d="" fill="#FFAA55" transform="translate(0,0)"/>
<path d="" fill="#FFFF7F" transform="translate(0,0)"/>
<path d="" fill="#FFAA55" transform="translate(0,0)"/>
<path d="" fill="#BFBF3F" transform="translate(0,0)"/>
<path d="" fill="#FF7F3F" transform="translate(0,0)"/>
<path d="" fill="#BF7F7F" transform="translate(0,0)"/>
<path d="" fill="#FFFF7F" transform="translate(0,0)"/>
<path d="" fill="#FFAA55" transform="translate(0,0)"/>
<path d="" fill="#BF7F7F" transform="translate(0,0)"/>
<path d="" fill="#FFAA55" transform="translate(0,0)"/>
<path d="" fill="#BF7F3F" transform="translate(0,0)"/>
<path d="" fill="#AAAA55" transform="translate(0,0)"/>
<path d="" fill="#FF7F7F" transform="translate(0,0)"/>
<path d="" fill="#FFAA55" transform="translate(0,0)"/>
<path d="" fill="#FF7F7F" transform="translate(0,0)"/>
<path d="" fill="#FFFF7F" transform="translate(0,0)"/>
<path d="" fill="#FFBF7F" transform="translate(0,0)"/>
<path d="" fill="#FFFFFF" transform="translate(0,0)"/>
<path d="" fill="#FFAA55" transform="translate(0,0)"/>
<path d="" fill="#FFFF7F" transform="translate(0,0)"/>
<path d="" fill="#BF7F3F" transform="translate(0,0)"/>
<path d="" fill="#BF7F3F" transform="translate(0,0)"/>
<path d="" fill="#FFAA55" transform="translate(0,0)"/>
<path d="" fill="#FFAAAA" transform="translate(0,0)"/>
<path d="" fill="#AAAAAA" transform="translate(0,0)"/>
<path d="" fill="#FFAA55" transform="translate(0,0)"/>
<path d="" fill="#BF7F7F" transform="translate(0,0)"/>
<path d="" fill="#FFAA55" transform="translate(0,0)"/>
<path d="" fill="#FFFF7F" transform="translate(0,0)"/>
<path d="" fill="#BF7F3F" transform="translate(0,0)"/>
<path d="" fill="#FFAA55" transform="translate(0,0)"/>
<path d="" fill="#FFAAAA" transform="translate(0,0)"/>
<path d="" fill="#BF7F3F" transform="translate(0,0)"/>
<path d="" fill="#BFBF7F" transform="translate(0,0)"/>
<path d="" fill="#FFAA55" transform="translate(0,0)"/>
<path d="" fill="#FFBF7F" transform="translate(0,0)"/>
<path d="" fill="#AAAAAA" transform="translate(0,0)"/>
<path d="" fill="#FFBF7F" transform="translate(0,0)"/>
<path d="" fill="#FF7F7F" transform="translate(0,0)"/>
<path d="" fill="#FFBF7F" transform="translate(0,0)"/>
<path d="" fill="#BF7F7F" transform="translate(0,0)"/>
<path d="" fill="#FFAAAA" transform="translate(0,0)"/>
<path d="" fill="#BF7F7F" transform="translate(0,0)"/>
<path d="" fill="#FFAA55" transform="translate(0,0)"/>
<path d="" fill="#FFAAAA" transform="translate(0,0)"/>
<path d="" fill="#FFFFAA" transform="translate(0,0)"/>
<path d="" fill="#FFFF55" transform="translate(0,0)"/>
<path d="" fill="#FFAAAA" transform="translate(0,0)"/>
<path d="" fill="#FFFFAA" transform="translate(0,0)"/>
<path d="" fill="#FFAAAA" transform="translate(0,0)"/>
<path d="" fill="#BFBF3F" transform="translate(0,0)"/>
<path d="" fill="#BFBF7F" transform="translate(0,0)"/>
<path d="" fill="#FFAAAA" transform="translate(0,0)"/>
<path d="" fill="#FFBF3F" transform="translate(0,0)"/>
<path d="" fill="#BF7F7F" transform="translate(0,0)"/>
<path d="" fill="#FFAAAA" transform="translate(0,0)"/>
<path d="" fill="#FFAA55" transform="translate(0,0)"/>
<path d="" fill="#FFBF7F" transform="translate(0,0)"/>
<path d="" fill="#FFBF7F" transform="translate(0,0)"/>
<path d="" fill="#FFFFFF" transform="translate(0,0)"/>
<path d="" fill="#FFFFFF" transform="translate(0,0)"/>
<path d="" fill="#FFAA55" transform="translate(0,0)"/>
<path d="" fill="#FFBF7F" transform="translate(0,0)"/>
<path d="" fill="#FFAA55" transform="translate(0,0)"/>
<path d="" fill="#FF7F7F" transform="translate(0,0)"/>
<path d="" fill="#FFFF7F" transform="translate(0,0)"/>
<path d="" fill="#FFAA55" transform="translate(0,0)"/>
<path d="" fill="#FFFF7F" transform="translate(0,0)"/>
<path d="" fill="#BFBF7F" transform="translate(0,0)"/>
<path d="" fill="#FFAAAA" transform="translate(0,0)"/>
<path d="" fill="#FF7F3F" transform="translate(0,0)"/>
<path d="" fill="#FFFFAA" transform="translate(0,0)"/>
<path d="" fill="#FFFF55" transform="translate(0,0)"/>
<path d="" fill="#FFFF7F" transform="translate(0,0)"/>
<path d="" fill="#FFAAAA" transform="translate(0,0)"/>
<path d="" fill="#FFAAAA" transform="translate(0,0)"/>
<path d="" fill="#BF7F3F" transform="translate(0,0)"/>
<path d="" fill="#FFBF3F" transform="translate(0,0)"/>
<path d="" fill="#FF7F7F" transform="translate(0,0)"/>
<path d="" fill="#FFAA55" transform="translate(0,0)"/>
<path d="" fill="#FFAA55" transform="translate(0,0)"/>
<path d="" fill="#FFFF7F" transform="translate(0,0)"/>
<path d="" fill="#BF7F3F" transform="translate(0,0)"/>
<path d="" fill="#FFAAAA" transform="translate(0,0)"/>
<path d="" fill="#FFBF7F" transform="translate(0,0)"/>
<path d="" fill="#FFAA55" transform="translate(0,0)"/>
<path d="" fill="#FFAA55" transform="translate(0,0)"/>
<path d="" fill="#FFAA55" transform="translate(0,0)"/>
<path d="" fill="#BF7F7F" transform="translate(0,0)"/>
<path d="" fill="#FFAA55" transform="translate(0,0)"/>
<path d="" fill="#FFAAAA" transform="translate(0,0)"/>
<path d="" fill="#BFBF7F" transform="translate(0,0)"/>
<path d="" fill="#FFAAAA" transform="translate(0,0)"/>
<path d="" fill="#AAAA55" transform="translate(0,0)"/>
<path d="" fill="#FFAAAA" transform="translate(0,0)"/>
<path d="" fill="#FFAA55" transform="translate(0,0)"/>
<path d="" fill="#AAAA55" transform="translate(0,0)"/>
<path d="" fill="#AAAA55" transform="translate(0,0)"/>
<path d="" fill="#FF7F3F" transform="translate(0,0)"/>
<path d="" fill="#FFAA55" transform="translate(0,0)"/>
<path d="" fill="#FFAA55" transform="translate(0,0)"/>
<path d="" fill="#FFAAAA" transform="translate(0,0)"/>
<path d="" fill="#FFAAAA" transform="translate(0,0)"/>
<path d="" fill="#AAAA55" transform="translate(0,0)"/>
<path d="" fill="#FFAA55" transform="translate(0,0)"/>
<path d="" fill="#FFBF7F" transform="translate(0,0)"/>
<path d="" fill="#FFAA55" transform="translate(0,0)"/>
<path d="" fill="#FFAAAA" transform="translate(0,0)"/>
<path d="" fill="#FFAA55" transform="translate(0,0)"/>
<path d="" fill="#FFFF7F" transform="translate(0,0)"/>
<path d="" fill="#FFAA55" transform="translate(0,0)"/>
<path d="" fill="#FFFF7F" transform="translate(0,0)"/>
<path d="" fill="#FFBF7F" transform="translate(0,0)"/>
<path d="" fill="#BF7F3F" transform="translate(0,0)"/>
<path d="" fill="#FFAA55" transform="translate(0,0)"/>
<path d="" fill="#FFAAAA" transform="translate(0,0)"/>
<path d="" fill="#FFAAAA" transform="translate(0,0)"/>
<path d="" fill="#BF7F3F" transform="translate(0,0)"/>
<path d="" fill="#AA5500" transform="translate(0,0)"/>
<path d="" fill="#BF7F7F" transform="translate(0,0)"/>
<path d="" fill="#FFBF7F" transform="translate(0,0)"/>
<path d="" fill="#FFAA55" transform="translate(0,0)"/>
<path d="" fill="#FFAA55" transform="translate(0,0)"/>
<path d="" fill="#FFAA55" transform="translate(0,0)"/>
<path d="" fill="#FFAA55" transform="translate(0,0)"/>
<path d="" fill="#FFAA55" transform="translate(0,0)"/>
<path d="" fill="#FF7F7F" transform="translate(0,0)"/>
<path d="" fill="#FF7F7F" transform="translate(0,0)"/>
<path d="" fill="#FFFF7F" transform="translate(0,0)"/>
<path d="" fill="#FFFF7F" transform="translate(0,0)"/>
<path d="" fill="#FFFF7F" transform="translate(0,0)"/>
<path d="" fill="#FFFF7F" transform="translate(0,0)"/>
<path d="" fill="#BF7F3F" transform="translate(0,0)"/>
<path d="" fill="#BF7F3F" transform="translate(0,0)"/>
<path d="" fill="#FFBF7F" transform="translate(0,0)"/>
<path d="" fill="#FF7F7F" transform="translate(0,0)"/>
<path d="" fill="#FFAAAA" transform="translate(0,0)"/>
<path d="" fill="#FFAAAA" transform="translate(0,0)"/>
<path d="" fill="#BFBF7F" transform="translate(0,0)"/>
<path d="" fill="#BF7F7F" transform="translate(0,0)"/>
<path d="" fill="#FFBF7F" transform="translate(0,0)"/>
<path d="" fill="#FFAAAA" transform="translate(0,0)"/>
<path d="" fill="#BF7F7F" transform="translate(0,0)"/>
<path d="" fill="#FFAAAA" transform="translate(0,0)"/>
<path d="" fill="#FF7F3F" transform="translate(0,0)"/>
<path d="" fill="#FFAA55" transform="translate(0,0)"/>
<path d="" fill="#BF7F3F" transform="translate(0,0)"/>
<path d="" fill="#CC9966" transform="translate(0,0)"/>
<path d="" fill="#FF7F3F" transform="translate(0,0)"/>
<path d="" fill="#AAAA55" transform="translate(0,0)"/>
<path d="" fill="#BF7F7F" transform="translate(0,0)"/>
<path d="" fill="#FF7F7F" transform="translate(0,0)"/>
<path d="" fill="#FFBF7F" transform="translate(0,0)"/>
<path d="" fill="#FFAA55" transform="translate(0,0)"/>
<path d="" fill="#AAAA55" transform="translate(0,0)"/>
<path d="" fill="#FFAA55" transform="translate(0,0)"/>
<path d="" fill="#FFAA55" transform="translate(0,0)"/>
<path d="" fill="#FFFF7F" transform="translate(0,0)"/>
<path d="" fill="#BF7F3F" transform="translate(0,0)"/>
<path d="" fill="#FF7F3F" transform="translate(0,0)"/>
<path d="" fill="#FF7F3F" transform="translate(0,0)"/>
<path d="" fill="#FFAA55" transform="translate(0,0)"/>
<path d="" fill="#AAAA55" transform="translate(0,0)"/>
<path d="" fill="#BFBF3F" transform="translate(0,0)"/>
<path d="" fill="#FFAA55" transform="translate(0,0)"/>
<path d="" fill="#FFFF7F" transform="translate(0,0)"/>
<path d="" fill="#FFAAAA" transform="translate(0,0)"/>
<path d="" fill="#BF7F3F" transform="translate(0,0)"/>
<path d="" fill="#FFFFAA" transform="translate(0,0)"/>
<path d="" fill="#BFBF7F" transform="translate(0,0)"/>
<path d="" fill="#FFAA55" transform="translate(0,0)"/>
<path d="" fill="#BFBF7F" transform="translate(0,0)"/>
<path d="" fill="#BFBF7F" transform="translate(0,0)"/>
<path d="" fill="#FFBF7F" transform="translate(0,0)"/>
<path d="" fill="#FFBF7F" transform="translate(0,0)"/>
<path d="" fill="#FFBF7F" transform="translate(0,0)"/>
<path d="" fill="#CC9966" transform="translate(0,0)"/>
<path d="" fill="#BFBF3F" transform="translate(0,0)"/>
<path d="" fill="#FFFFFF" transform="translate(0,0)"/>
<path d="" fill="#BFBF7F" transform="translate(0,0)"/>
<path d="" fill="#FFAAAA" transform="translate(0,0)"/>
</svg>
