<svg width="18" height="15" viewBox="0 0 18 15" fill="none" xmlns="http://www.w3.org/2000/svg">
<path fill-rule="evenodd" clip-rule="evenodd" d="M4.53385 0.225757C5.87103 0.105531 7.2603 0 8.68297 0C10.1056 0 11.4949 0.104196 12.8308 0.227093C15.0589 0.42747 16.9131 2.17609 17.1749 4.41629C17.2845 5.3407 17.3659 6.29716 17.3659 7.27767C17.3659 8.25818 17.2831 9.21464 17.1749 10.139C16.9131 12.3793 15.0589 14.1265 12.8308 14.3296C11.4949 14.4498 10.1056 14.5553 8.68297 14.5553C7.2603 14.5553 5.87103 14.4511 4.53385 14.3282C2.307 14.1292 0.454186 12.3806 0.18969 10.1404C0.0707817 9.19065 0.00744393 8.23479 0 7.27767C0 6.29716 0.0828222 5.3407 0.18969 4.41629C0.45285 2.17609 2.307 0.428805 4.53385 0.225757ZM12.2016 7.27767C12.2016 8.27154 9.59803 9.82245 7.72918 10.8083C6.86756 11.2625 5.86568 10.6253 5.86568 9.65146V4.90388C5.86568 3.92871 6.86756 3.29285 7.72918 3.74704C9.59803 4.73289 12.2016 6.28514 12.2016 7.27767Z" fill="#3F3F3F"/>
</svg>
