<svg xmlns="http://www.w3.org/2000/svg" width="240" height="84" viewBox="0 0 240 84" role="img" aria-label="Swift">
  <defs>
    <linearGradient id="s" x1="0" y1="0" x2="1" y2="1">
      <stop offset="0" stop-color="#FF6A00"/>
      <stop offset="1" stop-color="#FF2D55"/>
    </linearGradient>
  </defs>
  <g fill="none">
    <path d="M62 18c-7 12-18 20-33 24 10 6 23 10 36 10 10 0 20-2 28-6-2 7-1 13 2 18 9-6 13-18 9-31-4-14-20-22-42-15z" fill="url(#s)"/>
    <path d="M24 20c9 10 19 18 31 24-12-10-20-20-25-31 2 12 7 20 14 26-10-5-18-11-24-19 1 6 2 10 4 14z" fill="#FFFFFF" fill-opacity=".92"/>
    <text x="104" y="54" font-family="ui-sans-serif, system-ui, -apple-system, Segoe UI, Roboto, Arial" font-size="44" font-weight="800" fill="#FFFFFF">Swift</text>
  </g>
</svg>

