<svg viewBox="0 0 480 168" xmlns="http://www.w3.org/2000/svg"><rect width="480" height="168" fill="#080b15"/><defs><radialGradient id="tg-dots-saffron" cx="50%" cy="50%" r="60%"><stop offset="0%" stop-color="#f58a0b" stop-opacity="0.06"/><stop offset="100%" stop-color="#f58a0b" stop-opacity="0"/></radialGradient></defs><rect width="480" height="168" fill="url(#tg-dots-saffron)"/><circle cx="20" cy="14" r="1.5" fill="#f58a0b" opacity="0.4"/><circle cx="20" cy="42" r="1.5" fill="#f58a0b" opacity="0.1"/><circle cx="20" cy="70" r="1.5" fill="#f58a0b" opacity="0.4"/><circle cx="20" cy="98" r="1.5" fill="#f58a0b" opacity="0.1"/><circle cx="20" cy="126" r="1.5" fill="#f58a0b" opacity="0.4"/><circle cx="20" cy="154" r="1.5" fill="#f58a0b" opacity="0.1"/><circle cx="56" cy="14" r="1.5" fill="#f58a0b" opacity="0.1"/><circle cx="56" cy="42" r="1.5" fill="#f58a0b" opacity="0.4"/><circle cx="56" cy="70" r="1.5" fill="#f58a0b" opacity="0.1"/><circle cx="56" cy="98" r="1.5" fill="#f58a0b" opacity="0.4"/><circle cx="56" cy="126" r="1.5" fill="#f58a0b" opacity="0.1"/><circle cx="56" cy="154" r="1.5" fill="#f58a0b" opacity="0.4"/><circle cx="92" cy="14" r="1.5" fill="#f58a0b" opacity="0.4"/><circle cx="92" cy="42" r="1.5" fill="#f58a0b" opacity="0.1"/><circle cx="92" cy="70" r="1.5" fill="#f58a0b" opacity="0.4"/><circle cx="92" cy="98" r="1.5" fill="#f58a0b" opacity="0.1"/><circle cx="92" cy="126" r="1.5" fill="#f58a0b" opacity="0.4"/><circle cx="92" cy="154" r="1.5" fill="#f58a0b" opacity="0.1"/><circle cx="128" cy="14" r="1.5" fill="#f58a0b" opacity="0.1"/><circle cx="128" cy="42" r="1.5" fill="#f58a0b" opacity="0.4"/><circle cx="128" cy="70" r="1.5" fill="#f58a0b" opacity="0.1"/><circle cx="128" cy="98" r="1.5" fill="#f58a0b" opacity="0.4"/><circle cx="128" cy="126" r="1.5" fill="#f58a0b" opacity="0.1"/><circle cx="128" cy="154" r="1.5" fill="#f58a0b" opacity="0.4"/><circle cx="164" cy="14" r="1.5" fill="#f58a0b" opacity="0.4"/><circle cx="164" cy="42" r="1.5" fill="#f58a0b" opacity="0.1"/><circle cx="164" cy="70" r="1.5" fill="#f58a0b" opacity="0.4"/><circle cx="164" cy="98" r="1.5" fill="#f58a0b" opacity="0.1"/><circle cx="164" cy="126" r="1.5" fill="#f58a0b" opacity="0.4"/><circle cx="164" cy="154" r="1.5" fill="#f58a0b" opacity="0.1"/><circle cx="200" cy="14" r="1.5" fill="#f58a0b" opacity="0.1"/><circle cx="200" cy="42" r="1.5" fill="#f58a0b" opacity="0.4"/><circle cx="200" cy="70" r="1.5" fill="#f58a0b" opacity="0.1"/><circle cx="200" cy="98" r="1.5" fill="#f58a0b" opacity="0.4"/><circle cx="200" cy="126" r="1.5" fill="#f58a0b" opacity="0.1"/><circle cx="200" cy="154" r="1.5" fill="#f58a0b" opacity="0.4"/><circle cx="236" cy="14" r="1.5" fill="#f58a0b" opacity="0.4"/><circle cx="236" cy="42" r="1.5" fill="#f58a0b" opacity="0.1"/><circle cx="236" cy="70" r="1.5" fill="#f58a0b" opacity="0.4"/><circle cx="236" cy="98" r="1.5" fill="#f58a0b" opacity="0.1"/><circle cx="236" cy="126" r="1.5" fill="#f58a0b" opacity="0.4"/><circle cx="236" cy="154" r="1.5" fill="#f58a0b" opacity="0.1"/><circle cx="272" cy="14" r="1.5" fill="#f58a0b" opacity="0.1"/><circle cx="272" cy="42" r="1.5" fill="#f58a0b" opacity="0.4"/><circle cx="272" cy="70" r="1.5" fill="#f58a0b" opacity="0.1"/><circle cx="272" cy="98" r="1.5" fill="#f58a0b" opacity="0.4"/><circle cx="272" cy="126" r="1.5" fill="#f58a0b" opacity="0.1"/><circle cx="272" cy="154" r="1.5" fill="#f58a0b" opacity="0.4"/><circle cx="308" cy="14" r="1.5" fill="#f58a0b" opacity="0.4"/><circle cx="308" cy="42" r="1.5" fill="#f58a0b" opacity="0.1"/><circle cx="308" cy="70" r="1.5" fill="#f58a0b" opacity="0.4"/><circle cx="308" cy="98" r="1.5" fill="#f58a0b" opacity="0.1"/><circle cx="308" cy="126" r="1.5" fill="#f58a0b" opacity="0.4"/><circle cx="308" cy="154" r="1.5" fill="#f58a0b" opacity="0.1"/><circle cx="344" cy="14" r="1.5" fill="#f58a0b" opacity="0.1"/><circle cx="344" cy="42" r="1.5" fill="#f58a0b" opacity="0.4"/><circle cx="344" cy="70" r="1.5" fill="#f58a0b" opacity="0.1"/><circle cx="344" cy="98" r="1.5" fill="#f58a0b" opacity="0.4"/><circle cx="344" cy="126" r="1.5" fill="#f58a0b" opacity="0.1"/><circle cx="344" cy="154" r="1.5" fill="#f58a0b" opacity="0.4"/><circle cx="380" cy="14" r="1.5" fill="#f58a0b" opacity="0.4"/><circle cx="380" cy="42" r="1.5" fill="#f58a0b" opacity="0.1"/><circle cx="380" cy="70" r="1.5" fill="#f58a0b" opacity="0.4"/><circle cx="380" cy="98" r="1.5" fill="#f58a0b" opacity="0.1"/><circle cx="380" cy="126" r="1.5" fill="#f58a0b" opacity="0.4"/><circle cx="380" cy="154" r="1.5" fill="#f58a0b" opacity="0.1"/><circle cx="416" cy="14" r="1.5" fill="#f58a0b" opacity="0.1"/><circle cx="416" cy="42" r="1.5" fill="#f58a0b" opacity="0.4"/><circle cx="416" cy="70" r="1.5" fill="#f58a0b" opacity="0.1"/><circle cx="416" cy="98" r="1.5" fill="#f58a0b" opacity="0.4"/><circle cx="416" cy="126" r="1.5" fill="#f58a0b" opacity="0.1"/><circle cx="416" cy="154" r="1.5" fill="#f58a0b" opacity="0.4"/><circle cx="452" cy="14" r="1.5" fill="#f58a0b" opacity="0.4"/><circle cx="452" cy="42" r="1.5" fill="#f58a0b" opacity="0.1"/><circle cx="452" cy="70" r="1.5" fill="#f58a0b" opacity="0.4"/><circle cx="452" cy="98" r="1.5" fill="#f58a0b" opacity="0.1"/><circle cx="452" cy="126" r="1.5" fill="#f58a0b" opacity="0.4"/><circle cx="452" cy="154" r="1.5" fill="#f58a0b" opacity="0.1"/></svg>
