<svg viewBox="0 0 480 168" xmlns="http://www.w3.org/2000/svg"><rect width="480" height="168" fill="#080b15"/><defs><radialGradient id="tg-grid-cyan" cx="50%" cy="50%" r="60%"><stop offset="0%" stop-color="#00d4cc" stop-opacity="0.06"/><stop offset="100%" stop-color="#00d4cc" stop-opacity="0"/></radialGradient></defs><rect width="480" height="168" fill="url(#tg-grid-cyan)"/><line x1="0" y1="0" x2="0" y2="168" stroke="#00d4cc" stroke-width="0.4" opacity="0.08"/><line x1="30" y1="0" x2="30" y2="168" stroke="#00d4cc" stroke-width="0.4" opacity="0.08"/><line x1="60" y1="0" x2="60" y2="168" stroke="#00d4cc" stroke-width="0.4" opacity="0.08"/><line x1="90" y1="0" x2="90" y2="168" stroke="#00d4cc" stroke-width="0.4" opacity="0.08"/><line x1="120" y1="0" x2="120" y2="168" stroke="#00d4cc" stroke-width="0.4" opacity="0.08"/><line x1="150" y1="0" x2="150" y2="168" stroke="#00d4cc" stroke-width="0.4" opacity="0.08"/><line x1="180" y1="0" x2="180" y2="168" stroke="#00d4cc" stroke-width="0.4" opacity="0.08"/><line x1="210" y1="0" x2="210" y2="168" stroke="#00d4cc" stroke-width="0.4" opacity="0.08"/><line x1="240" y1="0" x2="240" y2="168" stroke="#00d4cc" stroke-width="0.4" opacity="0.08"/><line x1="270" y1="0" x2="270" y2="168" stroke="#00d4cc" stroke-width="0.4" opacity="0.08"/><line x1="300" y1="0" x2="300" y2="168" stroke="#00d4cc" stroke-width="0.4" opacity="0.08"/><line x1="330" y1="0" x2="330" y2="168" stroke="#00d4cc" stroke-width="0.4" opacity="0.08"/><line x1="360" y1="0" x2="360" y2="168" stroke="#00d4cc" stroke-width="0.4" opacity="0.08"/><line x1="390" y1="0" x2="390" y2="168" stroke="#00d4cc" stroke-width="0.4" opacity="0.08"/><line x1="420" y1="0" x2="420" y2="168" stroke="#00d4cc" stroke-width="0.4" opacity="0.08"/><line x1="450" y1="0" x2="450" y2="168" stroke="#00d4cc" stroke-width="0.4" opacity="0.08"/><line x1="0" y1="0" x2="480" y2="0" stroke="#00d4cc" stroke-width="0.4" opacity="0.08"/><line x1="0" y1="28" x2="480" y2="28" stroke="#00d4cc" stroke-width="0.4" opacity="0.08"/><line x1="0" y1="56" x2="480" y2="56" stroke="#00d4cc" stroke-width="0.4" opacity="0.08"/><line x1="0" y1="84" x2="480" y2="84" stroke="#00d4cc" stroke-width="0.4" opacity="0.08"/><line x1="0" y1="112" x2="480" y2="112" stroke="#00d4cc" stroke-width="0.4" opacity="0.08"/><line x1="0" y1="140" x2="480" y2="140" stroke="#00d4cc" stroke-width="0.4" opacity="0.08"/><circle cx="30" cy="28" r="2.5" fill="#00d4cc" opacity="0.35"/><circle cx="30" cy="84" r="2.5" fill="#00d4cc" opacity="0.35"/><circle cx="30" cy="140" r="2.5" fill="#00d4cc" opacity="0.35"/><circle cx="120" cy="28" r="2.5" fill="#00d4cc" opacity="0.35"/><circle cx="120" cy="84" r="2.5" fill="#00d4cc" opacity="0.35"/><circle cx="120" cy="140" r="2.5" fill="#00d4cc" opacity="0.35"/><circle cx="210" cy="28" r="2.5" fill="#00d4cc" opacity="0.35"/><circle cx="210" cy="84" r="2.5" fill="#00d4cc" opacity="0.35"/><circle cx="210" cy="140" r="2.5" fill="#00d4cc" opacity="0.35"/><circle cx="300" cy="28" r="2.5" fill="#00d4cc" opacity="0.35"/><circle cx="300" cy="84" r="2.5" fill="#00d4cc" opacity="0.35"/><circle cx="300" cy="140" r="2.5" fill="#00d4cc" opacity="0.35"/><circle cx="390" cy="28" r="2.5" fill="#00d4cc" opacity="0.35"/><circle cx="390" cy="84" r="2.5" fill="#00d4cc" opacity="0.35"/><circle cx="390" cy="140" r="2.5" fill="#00d4cc" opacity="0.35"/></svg>
