<svg viewBox="0 0 480 168" xmlns="http://www.w3.org/2000/svg"><rect width="480" height="168" fill="#080b15"/><defs><radialGradient id="tg-wave-saffron" cx="50%" cy="50%" r="60%"><stop offset="0%" stop-color="#f58a0b" stop-opacity="0.06"/><stop offset="100%" stop-color="#f58a0b" stop-opacity="0"/></radialGradient></defs><rect width="480" height="168" fill="url(#tg-wave-saffron)"/><path d="M0,28 Q120,10 240,28 Q360,46 480,28" fill="none" stroke="#f58a0b" stroke-width="0.7" opacity="0.08"/><path d="M0,52 Q120,34 240,52 Q360,70 480,52" fill="none" stroke="#f58a0b" stroke-width="0.7" opacity="0.12"/><path d="M0,76 Q120,58 240,76 Q360,94 480,76" fill="none" stroke="#f58a0b" stroke-width="0.7" opacity="0.16"/><path d="M0,100 Q120,82 240,100 Q360,118 480,100" fill="none" stroke="#f58a0b" stroke-width="0.7" opacity="0.2"/><path d="M0,124 Q120,106 240,124 Q360,142 480,124" fill="none" stroke="#f58a0b" stroke-width="0.7" opacity="0.24"/><path d="M0,148 Q120,130 240,148 Q360,166 480,148" fill="none" stroke="#f58a0b" stroke-width="0.7" opacity="0.28"/><rect x="190" y="55" width="100" height="58" rx="4" fill="none" stroke="#f58a0b" stroke-width="0.7" opacity="0.3"/><line x1="190" y1="78" x2="290" y2="78" stroke="#f58a0b" stroke-width="0.5" opacity="0.25"/></svg>
